<?xml version="1.0" encoding="UTF-8"?>
<svg version="1.1" xmlns="http://www.w3.org/2000/svg" width="256" height="256">
<path d="M0 0 C0.7767681 -0.00155999 1.55353621 -0.00311998 2.35384274 -0.00472724 C4.94693355 -0.00870396 7.53996543 -0.00556052 10.13305664 -0.00241089 C11.99610427 -0.0037664 13.85915163 -0.00554719 15.72219849 -0.00772095 C20.77581058 -0.01227737 25.82940224 -0.01051306 30.88301468 -0.00734186 C36.17331243 -0.00480903 41.46360843 -0.00715838 46.75390625 -0.00872803 C55.63777989 -0.01054702 64.52164521 -0.00815049 73.40551758 -0.00338745 C83.67450724 0.00205465 93.94347706 0.0002918 104.21246624 -0.00521386 C113.03129337 -0.00975267 121.85011453 -0.01039176 130.66894245 -0.00777519 C135.9351312 -0.00621665 141.20131063 -0.00600708 146.46749878 -0.00931168 C151.41852624 -0.01220152 156.36952812 -0.01019417 161.32055283 -0.00441742 C163.13700188 -0.00309581 164.95345308 -0.00347379 166.76990128 -0.00568008 C169.25043846 -0.00841509 171.7308938 -0.00498168 174.21142578 0 C174.92913619 -0.00223072 175.6468466 -0.00446144 176.38630581 -0.00675976 C180.39549067 0.0088425 184.17159892 0.35469108 188.10571289 1.12698364 C188.10571289 1.78698364 188.10571289 2.44698364 188.10571289 3.12698364 C189.42571289 3.12698364 190.74571289 3.12698364 192.10571289 3.12698364 C192.10571289 3.78698364 192.10571289 4.44698364 192.10571289 5.12698364 C192.76571289 5.12698364 193.42571289 5.12698364 194.10571289 5.12698364 C194.10571289 5.78698364 194.10571289 6.44698364 194.10571289 7.12698364 C195.42571289 7.12698364 196.74571289 7.12698364 198.10571289 7.12698364 C198.10571289 7.78698364 198.10571289 8.44698364 198.10571289 9.12698364 C198.76571289 9.12698364 199.42571289 9.12698364 200.10571289 9.12698364 C200.10571289 9.78698364 200.10571289 10.44698364 200.10571289 11.12698364 C200.76571289 11.12698364 201.42571289 11.12698364 202.10571289 11.12698364 C202.10571289 11.78698364 202.10571289 12.44698364 202.10571289 13.12698364 C202.76571289 13.12698364 203.42571289 13.12698364 204.10571289 13.12698364 C204.10571289 13.78698364 204.10571289 14.44698364 204.10571289 15.12698364 C204.76571289 15.12698364 205.42571289 15.12698364 206.10571289 15.12698364 C206.10571289 15.78698364 206.10571289 16.44698364 206.10571289 17.12698364 C206.76571289 17.12698364 207.42571289 17.12698364 208.10571289 17.12698364 C208.10571289 18.44698364 208.10571289 19.76698364 208.10571289 21.12698364 C208.76571289 21.12698364 209.42571289 21.12698364 210.10571289 21.12698364 C210.10571289 21.78698364 210.10571289 22.44698364 210.10571289 23.12698364 C210.76571289 23.12698364 211.42571289 23.12698364 212.10571289 23.12698364 C212.10571289 24.44698364 212.10571289 25.76698364 212.10571289 27.12698364 C212.76571289 27.12698364 213.42571289 27.12698364 214.10571289 27.12698364 C215.02011828 31.78503062 215.24739884 36.29096472 215.23269653 41.02127075 C215.23425652 41.79803885 215.23581651 42.57480696 215.23742378 43.37511349 C215.24140049 45.9682043 215.23825705 48.56123618 215.23510742 51.15432739 C215.23646294 53.01737502 215.23824372 54.88042238 215.24041748 56.74346924 C215.24497391 61.79708133 215.2432096 66.85067299 215.24003839 71.90428543 C215.23750557 77.19458318 215.23985491 82.48487918 215.24142456 87.775177 C215.24324355 96.65905064 215.24084702 105.54291596 215.23608398 114.42678833 C215.23064189 124.695778 215.23240473 134.96474781 215.23791039 145.23373699 C215.2424492 154.05256412 215.2430883 162.87138528 215.24047172 171.6902132 C215.23891319 176.95640196 215.23870361 182.22258138 215.24200821 187.48876953 C215.24489805 192.439797 215.2428907 197.39079888 215.23711395 202.34182358 C215.23579234 204.15827263 215.23617032 205.97472384 215.23837662 207.79117203 C215.24111162 210.27170921 215.23767821 212.75216455 215.23269653 215.23269653 C215.23492725 215.95040694 215.23715798 216.66811735 215.2394563 217.40757656 C215.22385403 221.41676142 214.87800545 225.19286967 214.10571289 229.12698364 C213.44571289 229.12698364 212.78571289 229.12698364 212.10571289 229.12698364 C212.10571289 230.44698364 212.10571289 231.76698364 212.10571289 233.12698364 C211.44571289 233.12698364 210.78571289 233.12698364 210.10571289 233.12698364 C210.10571289 233.78698364 210.10571289 234.44698364 210.10571289 235.12698364 C209.44571289 235.12698364 208.78571289 235.12698364 208.10571289 235.12698364 C208.10571289 236.44698364 208.10571289 237.76698364 208.10571289 239.12698364 C207.44571289 239.12698364 206.78571289 239.12698364 206.10571289 239.12698364 C206.10571289 239.78698364 206.10571289 240.44698364 206.10571289 241.12698364 C205.44571289 241.12698364 204.78571289 241.12698364 204.10571289 241.12698364 C204.10571289 241.78698364 204.10571289 242.44698364 204.10571289 243.12698364 C203.44571289 243.12698364 202.78571289 243.12698364 202.10571289 243.12698364 C202.10571289 243.78698364 202.10571289 244.44698364 202.10571289 245.12698364 C201.44571289 245.12698364 200.78571289 245.12698364 200.10571289 245.12698364 C200.10571289 245.78698364 200.10571289 246.44698364 200.10571289 247.12698364 C199.44571289 247.12698364 198.78571289 247.12698364 198.10571289 247.12698364 C198.10571289 247.78698364 198.10571289 248.44698364 198.10571289 249.12698364 C196.78571289 249.12698364 195.46571289 249.12698364 194.10571289 249.12698364 C194.10571289 249.78698364 194.10571289 250.44698364 194.10571289 251.12698364 C193.44571289 251.12698364 192.78571289 251.12698364 192.10571289 251.12698364 C192.10571289 251.78698364 192.10571289 252.44698364 192.10571289 253.12698364 C190.78571289 253.12698364 189.46571289 253.12698364 188.10571289 253.12698364 C188.10571289 253.78698364 188.10571289 254.44698364 188.10571289 255.12698364 C183.44766591 256.04138903 178.94173181 256.26866959 174.21142578 256.25396729 C173.43465768 256.25552728 172.65788958 256.25708727 171.85758305 256.25869453 C169.26449223 256.26267124 166.67146035 256.2595278 164.07836914 256.25637817 C162.21532151 256.25773369 160.35227415 256.25951447 158.48922729 256.26168823 C153.43561521 256.26624466 148.38202355 256.26448035 143.3284111 256.26130915 C138.03811335 256.25877632 132.74781735 256.26112566 127.45751953 256.26269531 C118.5736459 256.2645143 109.68978058 256.26211777 100.8059082 256.25735474 C90.53691854 256.25191264 80.26794873 256.25367549 69.99895954 256.25918114 C61.18013241 256.26371995 52.36131125 256.26435905 43.54248333 256.26174247 C38.27629458 256.26018394 33.01011515 256.25997437 27.743927 256.26327896 C22.79289954 256.2661688 17.84189766 256.26416145 12.89087296 256.2583847 C11.0744239 256.25706309 9.2579727 256.25744107 7.44152451 256.25964737 C4.96098732 256.26238237 2.48053198 256.25894896 0 256.25396729 C-0.71771041 256.25619801 -1.43542082 256.25842873 -2.17488003 256.26072705 C-6.18406488 256.24512478 -9.96017314 255.8992762 -13.89428711 255.12698364 C-13.89428711 254.46698364 -13.89428711 253.80698364 -13.89428711 253.12698364 C-15.21428711 253.12698364 -16.53428711 253.12698364 -17.89428711 253.12698364 C-17.89428711 252.46698364 -17.89428711 251.80698364 -17.89428711 251.12698364 C-18.55428711 251.12698364 -19.21428711 251.12698364 -19.89428711 251.12698364 C-19.89428711 250.46698364 -19.89428711 249.80698364 -19.89428711 249.12698364 C-21.21428711 249.12698364 -22.53428711 249.12698364 -23.89428711 249.12698364 C-23.89428711 248.46698364 -23.89428711 247.80698364 -23.89428711 247.12698364 C-24.55428711 247.12698364 -25.21428711 247.12698364 -25.89428711 247.12698364 C-25.89428711 246.46698364 -25.89428711 245.80698364 -25.89428711 245.12698364 C-26.55428711 245.12698364 -27.21428711 245.12698364 -27.89428711 245.12698364 C-27.89428711 244.46698364 -27.89428711 243.80698364 -27.89428711 243.12698364 C-28.55428711 243.12698364 -29.21428711 243.12698364 -29.89428711 243.12698364 C-29.89428711 242.46698364 -29.89428711 241.80698364 -29.89428711 241.12698364 C-30.55428711 241.12698364 -31.21428711 241.12698364 -31.89428711 241.12698364 C-31.89428711 240.46698364 -31.89428711 239.80698364 -31.89428711 239.12698364 C-32.55428711 239.12698364 -33.21428711 239.12698364 -33.89428711 239.12698364 C-33.89428711 237.80698364 -33.89428711 236.48698364 -33.89428711 235.12698364 C-34.55428711 235.12698364 -35.21428711 235.12698364 -35.89428711 235.12698364 C-35.89428711 234.46698364 -35.89428711 233.80698364 -35.89428711 233.12698364 C-36.55428711 233.12698364 -37.21428711 233.12698364 -37.89428711 233.12698364 C-37.89428711 231.80698364 -37.89428711 230.48698364 -37.89428711 229.12698364 C-38.55428711 229.12698364 -39.21428711 229.12698364 -39.89428711 229.12698364 C-40.8086925 224.46893667 -41.03597306 219.96300257 -41.02127075 215.23269653 C-41.02283074 214.45592843 -41.02439073 213.67916033 -41.025998 212.8788538 C-41.02997471 210.28576298 -41.02683127 207.6927311 -41.02368164 205.09963989 C-41.02503716 203.23659226 -41.02681794 201.3735449 -41.0289917 199.51049805 C-41.03354812 194.45688596 -41.03178381 189.4032943 -41.02861261 184.34968185 C-41.02607978 179.05938411 -41.02842913 173.7690881 -41.02999878 168.47879028 C-41.03181777 159.59491665 -41.02942124 150.71105133 -41.0246582 141.82717896 C-41.01921611 131.55818929 -41.02097895 121.28921948 -41.02648461 111.02023029 C-41.03102342 102.20140316 -41.03166251 93.382582 -41.02904594 84.56375408 C-41.02748741 79.29756533 -41.02727783 74.03138591 -41.03058243 68.76519775 C-41.03347227 63.81417029 -41.03146492 58.86316841 -41.02568817 53.91214371 C-41.02436656 52.09569466 -41.02474454 50.27924345 -41.02695084 48.46279526 C-41.02968584 45.98225807 -41.02625243 43.50180273 -41.02127075 41.02127075 C-41.02350147 40.30356034 -41.0257322 39.58584993 -41.02803051 38.84639072 C-41.01242825 34.83720587 -40.66657967 31.06109761 -39.89428711 27.12698364 C-39.23428711 27.12698364 -38.57428711 27.12698364 -37.89428711 27.12698364 C-37.89428711 25.80698364 -37.89428711 24.48698364 -37.89428711 23.12698364 C-37.23428711 23.12698364 -36.57428711 23.12698364 -35.89428711 23.12698364 C-35.89428711 21.80698364 -35.89428711 20.48698364 -35.89428711 19.12698364 C-35.23428711 19.12698364 -34.57428711 19.12698364 -33.89428711 19.12698364 C-33.89428711 18.46698364 -33.89428711 17.80698364 -33.89428711 17.12698364 C-33.23428711 17.12698364 -32.57428711 17.12698364 -31.89428711 17.12698364 C-31.89428711 16.46698364 -31.89428711 15.80698364 -31.89428711 15.12698364 C-31.23428711 15.12698364 -30.57428711 15.12698364 -29.89428711 15.12698364 C-29.89428711 14.46698364 -29.89428711 13.80698364 -29.89428711 13.12698364 C-29.23428711 13.12698364 -28.57428711 13.12698364 -27.89428711 13.12698364 C-27.89428711 12.46698364 -27.89428711 11.80698364 -27.89428711 11.12698364 C-27.23428711 11.12698364 -26.57428711 11.12698364 -25.89428711 11.12698364 C-25.89428711 10.46698364 -25.89428711 9.80698364 -25.89428711 9.12698364 C-25.23428711 9.12698364 -24.57428711 9.12698364 -23.89428711 9.12698364 C-23.89428711 8.46698364 -23.89428711 7.80698364 -23.89428711 7.12698364 C-22.57428711 7.12698364 -21.25428711 7.12698364 -19.89428711 7.12698364 C-19.89428711 6.46698364 -19.89428711 5.80698364 -19.89428711 5.12698364 C-19.23428711 5.12698364 -18.57428711 5.12698364 -17.89428711 5.12698364 C-17.89428711 4.46698364 -17.89428711 3.80698364 -17.89428711 3.12698364 C-16.57428711 3.12698364 -15.25428711 3.12698364 -13.89428711 3.12698364 C-13.89428711 2.46698364 -13.89428711 1.80698364 -13.89428711 1.12698364 C-9.23624013 0.21257825 -4.73030603 -0.0147023 0 0 Z " fill="#070A0C" transform="translate(40.894287109375,-0.126983642578125)"/>
<path d="M0 0 C0 0.66 0 1.32 0 2 C0.66 2 1.32 2 2 2 C2.96688524 4.77979506 3.37098874 6.13373085 3 9 C-0.57358621 14.97763511 -5.45710025 19.84282519 -11 24 C-9.50688212 27.48862716 -7.51724585 29.71518623 -4.82568359 32.36962891 C-3.53457169 33.65083115 -3.53457169 33.65083115 -2.21737671 34.95791626 C-1.28712677 35.87156952 -0.35687683 36.78522278 0.6015625 37.7265625 C1.56335406 38.67954051 2.52455806 39.63311185 3.48519897 40.58724976 C6.52623903 43.60547739 9.57505712 46.61577253 12.625 49.625 C16.1662763 53.11912031 19.70431372 56.61639324 23.23405075 60.12217331 C24.65041112 61.52553639 26.07281559 62.9227908 27.49526978 64.31997681 C28.7769252 65.59172256 28.7769252 65.59172256 30.08447266 66.88916016 C30.84233063 67.63654449 31.6001886 68.38392883 32.38101196 69.15396118 C34 71 34 71 34 73 C34.85896378 72.67501022 35.71792755 72.35002045 36.60292053 72.0151825 C40.0595303 70.98220998 42.75906084 70.75235843 46.35327148 70.75708008 C48.210662 70.75246513 48.210662 70.75246513 50.10557556 70.74775696 C51.44408352 70.75465661 52.78258963 70.76192372 54.12109375 70.76953125 C55.50822405 70.77072519 56.89535517 70.77117576 58.28248596 70.7709198 C61.18324887 70.77247959 64.08388749 70.78072897 66.98461914 70.79418945 C70.68758459 70.81116248 74.39041355 70.81500384 78.09341335 70.81424427 C80.95629662 70.81451732 83.81915055 70.82002042 86.682024 70.82724571 C88.04665976 70.83040961 89.41129881 70.83239441 90.77593803 70.83313942 C92.68974897 70.83532827 94.60354707 70.84490102 96.51733398 70.85473633 C97.60288071 70.85854813 98.68842743 70.86235992 99.80686951 70.86628723 C103 71 103 71 106.60879517 71.74372864 C109.99246814 72.32695549 109.99246814 72.32695549 112.47422791 70.52145386 C113.22257401 69.77042389 113.9709201 69.01939392 114.74194336 68.24560547 C115.60230698 67.40077606 116.46267059 66.55594666 117.34910583 65.68551636 C118.25354935 64.75546783 119.15799286 63.82541931 120.08984375 62.8671875 C121.04252158 61.91227887 121.99661052 60.95877616 122.95204163 60.00662231 C124.94741748 58.00950532 126.92841115 55.99944648 128.8996582 53.97851562 C131.4254055 51.39035769 133.97894713 48.83195709 136.54317379 46.28198051 C138.51487119 44.31669771 140.47375671 42.33904584 142.42874336 40.35715103 C143.82127563 38.94847093 145.22234907 37.54825072 146.6235199 36.14816284 C147.88096764 34.85254929 147.88096764 34.85254929 149.16381836 33.53076172 C149.90659531 32.77495819 150.64937225 32.01915466 151.41465759 31.240448 C153.31625044 28.55306647 153.48371784 27.22546244 153 24 C151.15426239 21.36876743 151.15426239 21.36876743 148.6875 18.9375 C141.0476595 10.95319004 141.0476595 10.95319004 140.8125 6.25 C140.874375 5.1775 140.93625 4.105 141 3 C141.99 2.67 142.98 2.34 144 2 C144 1.34 144 0.68 144 0 C149.4953427 -1.8317809 153.78366697 -1.21694154 159 1 C161.32597511 1.3813074 163.65912158 1.72460254 166 2 C166 2.66 166 3.32 166 4 C168.31 4.66 170.62 5.32 173 6 C173 6.66 173 7.32 173 8 C173.804375 8.4021875 173.804375 8.4021875 174.625 8.8125 C175.40875 9.204375 176.1925 9.59625 177 10 C177.886875 10.37125 178.77375 10.7425 179.6875 11.125 C186.70079479 15.0947895 192.92212698 20.44522077 196 28 C195.75 31.4375 195.75 31.4375 195 34 C194.01 34 193.02 34 192 34 C192 34.66 192 35.32 192 36 C183.76963922 36.5016247 174.35718091 35.93915373 166.9921875 31.8984375 C164.147867 30.61570473 162.09918346 30.70213272 159 31 C156.50382861 32.61219271 156.50382861 32.61219271 154.2956543 34.97558594 C153.41842209 35.84358826 152.54118988 36.71159058 151.63737488 37.605896 C150.69910994 38.56485486 149.76140442 39.52436135 148.82421875 40.484375 C147.84979536 41.46237701 146.87425784 42.43927011 145.8976593 43.4151001 C143.85680486 45.46064057 141.82640387 47.51584284 139.8034668 49.57910156 C137.21165116 52.22192075 134.60048687 54.84452307 131.9819212 57.46081161 C129.96756425 59.47598475 127.96112396 61.49888522 125.95725441 63.52448273 C124.99698495 64.49428929 124.03489612 65.46229789 123.07095909 66.42845917 C121.72551588 67.7804155 120.39117859 69.14339686 119.05737305 70.50683594 C118.29603561 71.27960876 117.53469818 72.05238159 116.75028992 72.84857178 C114.97978936 75.0248426 114.2669942 76.23201466 114 79 C114.33 79.99 114.66 80.98 115 82 C115.04963203 84.24848018 115.0346042 86.49855538 114.98657227 88.74707031 C114.96024333 90.15984791 114.93409305 91.57262885 114.90809631 92.9854126 C114.88488658 94.10744457 114.88488658 94.10744457 114.86120796 95.25214386 C114.78475844 99.22119196 114.74360777 103.19066245 114.69726562 107.16015625 C114.63732074 112.20816692 114.56664736 117.25516192 114.45141602 122.30224609 C114.35915258 126.38415184 114.30645458 130.46491077 114.27992058 134.54775238 C114.26268923 136.09962198 114.23114213 137.6514039 114.18472481 139.20267487 C113.68741477 147.61183805 113.68741477 147.61183805 116.52122498 155.24552917 C118.57998347 157.03735937 120.72860354 158.48976964 123 160 C124.46048057 161.35391359 125.88939635 162.74248927 127.28881836 164.15942383 C128.02575424 164.89320755 128.76269012 165.62699127 129.5219574 166.38301086 C130.28685989 167.14993759 131.05176239 167.91686432 131.83984375 168.70703125 C132.64740616 169.51363693 133.45496857 170.32024261 134.28700256 171.15129089 C135.97812645 172.84173886 137.66800656 174.53343195 139.35668945 176.22631836 C141.95084702 178.8258748 144.55035425 181.41999675 147.15039062 184.01367188 C148.79719611 185.66113742 150.44369176 187.30891274 152.08984375 188.95703125 C152.86891586 189.73407913 153.64798798 190.51112701 154.45066833 191.3117218 C155.52297447 192.38875618 155.52297447 192.38875618 156.61694336 193.48754883 C157.24789413 194.1192952 157.87884491 194.75104156 158.52891541 195.40193176 C160 197 160 197 161 199 C161.99 199.33 162.98 199.66 164 200 C163.125 203.875 163.125 203.875 162 205 C160.33382885 205.04063832 158.66611905 205.042721 157 205 C156.67 203.35 156.34 201.7 156 200 C155.42131165 199.90830536 154.84262329 199.81661072 154.24639893 199.72213745 C151.4388743 198.81961802 150.143231 197.52394233 148.05761719 195.44580078 C147.29713074 194.69477081 146.53664429 193.94374084 145.75311279 193.16995239 C144.53727509 191.94500565 144.53727509 191.94500565 143.296875 190.6953125 C142.45908508 189.86039276 141.62129517 189.02547302 140.75811768 188.16525269 C138.98934918 186.39852579 137.22436407 184.62800424 135.46289062 182.85400391 C132.75717532 180.13221794 130.03583179 177.42680272 127.3125 174.72265625 C125.59799539 173.00616962 123.88442141 171.28875283 122.171875 169.5703125 C121.3532196 168.7577298 120.53456421 167.94514709 119.69110107 167.10794067 C118.56928436 165.97193924 118.56928436 165.97193924 117.42480469 164.81298828 C116.76180359 164.1476004 116.09880249 163.48221252 115.41571045 162.79666138 C114 161 114 161 114 158 C111.26758432 156.06453889 110.09068834 155.9850513 106.73266602 156.53857422 C101.64228433 157.25325299 96.8495372 156.53159227 91.77427673 155.91346741 C55.9871797 151.1072754 55.9871797 151.1072754 23.40917683 163.00667953 C11.45381187 172.67485413 1.23212285 184.72719776 -8.02964783 196.94810486 C-8.75011795 197.8889241 -9.47058807 198.82974335 -10.21289062 199.79907227 C-10.82861938 200.63624283 -11.44434814 201.47341339 -12.07873535 202.33595276 C-12.71275269 202.88508835 -13.34677002 203.43422394 -14 204 C-16.73669434 203.76255798 -16.73669434 203.76255798 -19 203 C-17.58678542 194.55171977 -8.96699961 188.86151853 -2.45814514 184.16539001 C10.79526813 174.48887169 26.46872342 162.88905281 29.38467693 145.75007439 C31.71050193 128.21127136 30.38788426 109.9592572 28.71780396 92.40693665 C28.5997641 91.12417343 28.48172424 89.84141022 28.36010742 88.51977539 C28.24406662 87.40115616 28.12802582 86.28253693 28.00846863 85.13002014 C27.99915942 81.68931942 28.74429707 79.18377126 30 76 C29.42444366 75.74943344 28.84888733 75.49886688 28.25588989 75.2407074 C25.6909334 73.83001776 23.97313369 72.22028837 21.90576172 70.14868164 C20.71465286 68.96218773 20.71465286 68.96218773 19.4994812 67.75172424 C18.65144928 66.89650681 17.80341736 66.04128937 16.9296875 65.16015625 C16.05224884 64.28225937 15.17481018 63.40436249 14.27078247 62.49986267 C11.94329234 60.16857956 9.62047177 57.83276383 7.29943848 55.49505615 C4.9377487 53.11990743 2.56774969 50.75309164 0.19921875 48.38476562 C-1.59943095 46.58120037 -3.39762364 44.77717921 -5.1953125 42.97265625 C-6.47343307 41.69286644 -6.47343307 41.69286644 -7.77737427 40.38722229 C-8.56514252 39.59307419 -9.35291077 38.79892609 -10.16455078 37.98071289 C-10.85864044 37.28281143 -11.5527301 36.58490997 -12.26785278 35.86585999 C-14 34 -14 34 -16 31 C-21.13154086 30.41907085 -23.77843929 31.18562619 -28 34 C-32.51227151 35.81273335 -36.33819303 36.27079017 -41.1875 36.25 C-43.00314453 36.25773437 -43.00314453 36.25773437 -44.85546875 36.265625 C-48 36 -48 36 -51 34 C-52.26468197 30.14375662 -52.07168549 26.88786349 -51 23 C-46.7884578 16.55392 -40.04684421 10.69940753 -32.91796875 7.7890625 C-30.67873209 6.86782868 -28.70336941 5.67799274 -26.625 4.4375 C-18.49237055 -0.0899432 -9.13971752 -3.04657251 0 0 Z " fill="#34E713" transform="translate(56,14)"/>
<path d="M0 0 C1.89841141 -0.00642769 1.89841141 -0.00642769 3.83517456 -0.01298523 C6.50305188 -0.01871435 9.1705404 -0.02018013 11.83837891 -0.01489258 C15.24910678 -0.00908197 18.65929441 -0.02608317 22.06993294 -0.04923725 C25.33828453 -0.06753698 28.6066064 -0.06378932 31.875 -0.0625 C33.09591339 -0.07170975 34.31682678 -0.08091949 35.57473755 -0.09040833 C36.71296967 -0.08417953 37.85120178 -0.07795074 39.02392578 -0.0715332 C40.02207306 -0.07216263 41.02022034 -0.07279205 42.0486145 -0.07344055 C45.34028156 0.37350464 47.17036568 1.29134598 49.8046875 3.30078125 C52.07668508 6.48857389 52.05762148 9.35413711 52.06347656 13.19921875 C52.06978088 14.38725098 52.07608521 15.5752832 52.08258057 16.79931641 C52.0785321 18.0785498 52.07448364 19.3577832 52.0703125 20.67578125 C52.07222595 21.99239746 52.0741394 23.30901367 52.07611084 24.66552734 C52.07905597 27.44959211 52.07478424 30.23352833 52.06542969 33.01757812 C52.05403538 36.58196241 52.06059814 40.14604547 52.07257462 43.7104187 C52.08154896 47.11556355 52.07526125 50.52062784 52.0703125 53.92578125 C52.07436096 55.20501465 52.07840942 56.48424805 52.08258057 57.80224609 C52.07312408 59.58429443 52.07312408 59.58429443 52.06347656 61.40234375 C52.06188538 62.44729004 52.06029419 63.49223633 52.05865479 64.56884766 C51.79570146 67.39744438 51.43237699 68.98376949 49.8046875 71.30078125 C46.49867297 73.66451703 43.39237552 73.55401856 39.41552734 73.55957031 C37.47364029 73.56902679 37.47364029 73.56902679 35.49252319 73.57867432 C34.08355574 73.57509518 32.67458953 73.57099338 31.265625 73.56640625 C29.81881648 73.56775376 28.37200839 73.569695 26.92520142 73.57220459 C23.89735592 73.57514996 20.86962861 73.57087591 17.84179688 73.56152344 C13.95661748 73.55010873 10.07171379 73.55670467 6.18654442 73.56866837 C3.20118114 73.57588548 0.21588357 73.5736001 -2.76948166 73.56841278 C-4.20244759 73.56707692 -5.63541944 73.56872178 -7.06837845 73.57337189 C-9.06723165 73.57843662 -11.06610573 73.56935175 -13.06494141 73.55957031 C-14.20315338 73.55797913 -15.34136536 73.55638794 -16.5140686 73.55474854 C-19.1953125 73.30078125 -19.1953125 73.30078125 -21.1953125 71.30078125 C-22.34366203 68.02432226 -22.32795815 64.867266 -22.34057617 61.41821289 C-22.35014595 59.64100609 -22.35014595 59.64100609 -22.35990906 57.82789612 C-22.36102188 56.55179977 -22.3621347 55.27570343 -22.36328125 53.9609375 C-22.36660965 52.64669296 -22.36993805 51.33244843 -22.37336731 49.9783783 C-22.37934775 47.19854918 -22.38120829 44.41875111 -22.38061523 41.63891602 C-22.3805136 38.08362009 -22.39417192 34.5285238 -22.41138744 30.97327518 C-22.42520338 27.57332629 -22.42459668 24.1734141 -22.42578125 20.7734375 C-22.43296677 19.49936539 -22.44015228 18.22529327 -22.44755554 16.91261292 C-22.44447891 15.72465622 -22.44140228 14.53669952 -22.43823242 13.31274414 C-22.44036995 11.74865562 -22.44036995 11.74865562 -22.44255066 10.15296936 C-22.18021531 7.1266171 -21.6079076 4.98644211 -20.1953125 2.30078125 C-13.88500918 -0.61450186 -6.8246286 -0.00511151 0 0 Z " fill="#10380F" transform="translate(113.1953125,90.69921875)"/>
<path d="M0 0 C0 0.66 0 1.32 0 2 C0.66 2 1.32 2 2 2 C2.96688524 4.77979506 3.37098874 6.13373085 3 9 C-0.57358621 14.97763511 -5.45710025 19.84282519 -11 24 C-9.50688212 27.48862716 -7.51724585 29.71518623 -4.82568359 32.36962891 C-3.53457169 33.65083115 -3.53457169 33.65083115 -2.21737671 34.95791626 C-1.28712677 35.87156952 -0.35687683 36.78522278 0.6015625 37.7265625 C1.56335406 38.67954051 2.52455806 39.63311185 3.48519897 40.58724976 C6.52623903 43.60547739 9.57505712 46.61577253 12.625 49.625 C16.1662763 53.11912031 19.70431372 56.61639324 23.23405075 60.12217331 C24.65041112 61.52553639 26.07281559 62.9227908 27.49526978 64.31997681 C28.7769252 65.59172256 28.7769252 65.59172256 30.08447266 66.88916016 C30.84233063 67.63654449 31.6001886 68.38392883 32.38101196 69.15396118 C34 71 34 71 34 73 C35.98 73.495 35.98 73.495 38 74 C36.35 74.33 34.7 74.66 33 75 C31.97827655 79.02149435 32.07596935 82.33447737 32.5246582 86.44702148 C38.25836781 145.02097425 38.25836781 145.02097425 23.67250061 163.54103088 C18.83759821 169.29918135 13.55026332 174.50636067 7.9375 179.5 C7.11359457 180.23313982 7.11359457 180.23313982 6.27304459 180.98109055 C-0.55361154 187.00025756 -7.63091098 192.65476518 -15 198 C-15 197.01 -15 196.02 -15 195 C-13.36755371 193.47782898 -13.36755371 193.47782898 -11.05273438 191.82299805 C15.9736738 172.18964654 15.9736738 172.18964654 30.00439453 143.203125 C32.07100246 126.43141815 30.7292111 108.996276 28.87110901 92.25366211 C28.73389938 90.99005859 28.59668976 89.72645508 28.45532227 88.42456055 C28.32118423 87.32403854 28.1870462 86.22351654 28.04884338 85.08964539 C27.99446019 81.64957278 28.74104693 79.18082662 30 76 C29.42444366 75.74943344 28.84888733 75.49886688 28.25588989 75.2407074 C25.6909334 73.83001776 23.97313369 72.22028837 21.90576172 70.14868164 C20.71465286 68.96218773 20.71465286 68.96218773 19.4994812 67.75172424 C18.65144928 66.89650681 17.80341736 66.04128937 16.9296875 65.16015625 C16.05224884 64.28225937 15.17481018 63.40436249 14.27078247 62.49986267 C11.94329234 60.16857956 9.62047177 57.83276383 7.29943848 55.49505615 C4.9377487 53.11990743 2.56774969 50.75309164 0.19921875 48.38476562 C-1.59943095 46.58120037 -3.39762364 44.77717921 -5.1953125 42.97265625 C-6.47343307 41.69286644 -6.47343307 41.69286644 -7.77737427 40.38722229 C-8.56514252 39.59307419 -9.35291077 38.79892609 -10.16455078 37.98071289 C-10.85864044 37.28281143 -11.5527301 36.58490997 -12.26785278 35.86585999 C-14 34 -14 34 -16 31 C-21.13154086 30.41907085 -23.77843929 31.18562619 -28 34 C-32.51227151 35.81273335 -36.33819303 36.27079017 -41.1875 36.25 C-43.00314453 36.25773437 -43.00314453 36.25773437 -44.85546875 36.265625 C-48 36 -48 36 -51 34 C-52.26468197 30.14375662 -52.07168549 26.88786349 -51 23 C-46.7884578 16.55392 -40.04684421 10.69940753 -32.91796875 7.7890625 C-30.67873209 6.86782868 -28.70336941 5.67799274 -26.625 4.4375 C-18.49237055 -0.0899432 -9.13971752 -3.04657251 0 0 Z " fill="#239510" transform="translate(56,14)"/>
<path d="M0 0 C0 3 0 3 -1.63244629 4.97302246 C-2.39633667 5.72120239 -3.16022705 6.46938232 -3.94726562 7.24023438 C-4.80815796 8.09121704 -5.66905029 8.94219971 -6.55603027 9.81896973 C-7.49660278 10.73464722 -8.43717529 11.65032471 -9.40625 12.59375 C-10.37118386 13.54547162 -11.33524363 14.49808021 -12.29846191 15.45153809 C-15.87740233 18.99032845 -19.47239198 22.51267402 -23.0668335 26.03570557 C-26.10337315 29.0131404 -29.13376602 31.99657626 -32.15617371 34.98835754 C-33.57938406 36.39208076 -35.01164106 37.7866124 -36.44396973 39.18103027 C-37.30486206 40.03201294 -38.16575439 40.88299561 -39.05273438 41.75976562 C-39.81662476 42.50794556 -40.58051514 43.25612549 -41.36755371 44.02697754 C-43.31873751 45.95843545 -43.31873751 45.95843545 -43 49 C-41.39624458 50.44438448 -41.39624458 50.44438448 -39.3125 51.75 C-35.29801965 54.63072835 -32.18756743 57.51346125 -30 62 C-29.46140104 65.43356834 -29.51044646 67.11429458 -31.1875 70.1484375 C-33 72 -33 72 -35.53125 72.49609375 C-45.0413088 72.30839522 -53.66628541 70.72994612 -62 66 C-62 65.34 -62 64.68 -62 64 C-62.88558594 63.75765625 -63.77117188 63.5153125 -64.68359375 63.265625 C-70.19346932 61.1629163 -73.83621391 57.06679274 -78 53 C-78.57878906 52.48050781 -79.15757813 51.96101563 -79.75390625 51.42578125 C-82.80559636 48.39147968 -83.32517014 45.88255631 -83.4375 41.75 C-83.32348367 37.32348367 -83.32348367 37.32348367 -81 35 C-73.1510913 34.19009743 -65.6081794 34.57000163 -58.9375 39.0625 C-55.82866171 41.11301036 -53.66803765 41.65066308 -50 42 C-50.33 43.65 -50.66 45.3 -51 47 C-46.39825993 46.52115662 -44.4247589 44.91428792 -41.2097168 41.66381836 C-40.28913986 40.7429393 -39.36856293 39.82206024 -38.42008972 38.87327576 C-37.42958273 37.862344 -36.43929755 36.85119487 -35.44921875 35.83984375 C-34.42590995 34.80907084 -33.40171158 33.77918035 -32.37666321 32.75013733 C-29.68643513 30.04466636 -27.00843758 27.32739831 -24.33282471 24.60748291 C-21.59832008 21.83199672 -18.85239937 19.0678563 -16.10742188 16.30273438 C-10.72705413 10.8795195 -5.35955867 5.44378897 0 0 Z " fill="#1F8210" transform="translate(89,170)"/>
<path d="M0 0 C2.64770524 2.45157893 3.01517743 4.08954685 3.625 7.6875 C3.43232445 14.10600442 -1.69784709 18.69784709 -6 23 C-8.63412345 24.14820766 -11.27349121 25.09116374 -14 26 C-14.495 27.485 -14.495 27.485 -15 29 C-21.05714286 33 -21.05714286 33 -26 33 C-26 33.66 -26 34.32 -26 35 C-31.01709727 36.62260584 -35.36252451 37.32115798 -40.6875 37.375 C-41.97011719 37.40335938 -43.25273437 37.43171875 -44.57421875 37.4609375 C-48 37 -48 37 -50.44140625 35.1796875 C-52.47707447 32.33281315 -52.31098646 30.42085106 -52 27 C-51.34 27 -50.68 27 -50 27 C-49.7525 26.42636719 -49.505 25.85273438 -49.25 25.26171875 C-47.80910669 22.65460242 -46.12508021 20.89460984 -44 18.8125 C-43.29875 18.11769531 -42.5975 17.42289063 -41.875 16.70703125 C-40 15 -40 15 -38 14 C-38 12.35 -38 10.7 -38 9 C-37.34 9 -36.68 9 -36 9 C-35.67 10.65 -35.34 12.3 -35 14 C-32.00847418 13.22520264 -32.00847418 13.22520264 -29 12 C-28.67 11.01 -28.34 10.02 -28 9 C-29.32 8.67 -30.64 8.34 -32 8 C-32 7.67 -32 7.34 -32 7 C-26 5 -26 5 -23.84375 4.3046875 C-20.23062285 3.1291838 -16.82861382 1.92021678 -13.375 0.3125 C-8.62926714 -1.53306278 -4.81709989 -1.60569996 0 0 Z " fill="#1E7C0F" transform="translate(248,205)"/>
<path d="M0 0 C3.75205068 3.56902382 4.34681765 6.87201665 4.6875 11.875 C4.5157519 17.62856128 2.84848352 20.47760757 -1.17578125 24.4765625 C-5.07444118 27.7324027 -7.18126523 28.23266096 -12.1875 28.125 C-13.27417969 28.10695312 -14.36085938 28.08890625 -15.48046875 28.0703125 C-16.72763672 28.03550781 -16.72763672 28.03550781 -18 28 C-18 27.34 -18 26.68 -18 26 C-18.928125 25.7834375 -18.928125 25.7834375 -19.875 25.5625 C-23.35961033 24.64010315 -23.93248367 24.09531718 -26.125 21 C-28.462711 16.72005542 -28.88159731 12.78332005 -28 8 C-26.1875 4.6875 -26.1875 4.6875 -24 2 C-23.525625 1.236875 -23.05125 0.47375 -22.5625 -0.3125 C-17.30774613 -5.98763418 -6.10737295 -3.07726707 0 0 Z " fill="#38FB13" transform="translate(140,116)"/>
<path d="M0 0 C0.66 0.33 1.32 0.66 2 1 C3.17495564 4.99252876 3.07521392 8.83948669 2.98657227 12.97412109 C2.96025744 14.38674637 2.93410631 15.7993747 2.90809631 17.21200562 C2.89262316 17.95503307 2.87715 18.69806053 2.86120796 19.46360397 C2.7844548 23.42075242 2.7435916 27.37833646 2.69726562 31.3359375 C2.63730487 36.36197644 2.56645209 41.38699691 2.45141602 46.41210938 C2.35916395 50.48335295 2.3064612 54.55344786 2.27992058 58.62562943 C2.26269559 60.17191775 2.23115945 61.71811845 2.18472481 63.26380539 C1.69024986 71.63997184 1.69024986 71.63997184 4.52122498 79.24107361 C6.58019728 81.03315359 8.72944024 82.48788842 11 84 C12.46038718 85.35401432 13.88930685 86.74257767 15.28881836 88.15942383 C16.02575424 88.89320755 16.76269012 89.62699127 17.5219574 90.38301086 C18.28685989 91.14993759 19.05176239 91.91686432 19.83984375 92.70703125 C20.64740616 93.51363693 21.45496857 94.32024261 22.28700256 95.15129089 C23.97812645 96.84173886 25.66800656 98.53343195 27.35668945 100.22631836 C29.95084702 102.8258748 32.55035425 105.41999675 35.15039062 108.01367188 C36.79719611 109.66113742 38.44369176 111.30891274 40.08984375 112.95703125 C40.86891586 113.73407913 41.64798798 114.51112701 42.45066833 115.3117218 C43.16553909 116.02974472 43.88040985 116.74776764 44.61694336 117.48754883 C45.24789413 118.1192952 45.87884491 118.75104156 46.52891541 119.40193176 C48 121 48 121 49 123 C49.99 123.33 50.98 123.66 52 124 C51.125 127.875 51.125 127.875 50 129 C48.33382885 129.04063832 46.66611905 129.042721 45 129 C44.67 127.35 44.34 125.7 44 124 C43.42131165 123.90830536 42.84262329 123.81661072 42.24639893 123.72213745 C39.4388743 122.81961802 38.143231 121.52394233 36.05761719 119.44580078 C35.29713074 118.69477081 34.53664429 117.94374084 33.75311279 117.16995239 C32.94255432 116.35332123 32.13199585 115.53669006 31.296875 114.6953125 C30.45908508 113.86039276 29.62129517 113.02547302 28.75811768 112.16525269 C26.98934918 110.39852579 25.22436407 108.62800424 23.46289062 106.85400391 C20.75717532 104.13221794 18.03583179 101.42680272 15.3125 98.72265625 C13.59799539 97.00616962 11.88442141 95.28875283 10.171875 93.5703125 C9.3532196 92.7577298 8.53456421 91.94514709 7.69110107 91.10794067 C6.56928436 89.97193924 6.56928436 89.97193924 5.42480469 88.81298828 C4.76180359 88.1476004 4.09880249 87.48221252 3.41571045 86.79666138 C2 85 2 85 2 82 C-0.63904371 80.58622659 -3.07120629 79.62759865 -6 79 C-6 78.34 -6 77.68 -6 77 C-4.02 76.505 -4.02 76.505 -2 76 C-1.67 74.68 -1.34 73.36 -1 72 C-0.34 72 0.32 72 1 72 C0.67 48.24 0.34 24.48 0 0 Z " fill="#31D912" transform="translate(168,90)"/>
<path d="M0 0 C10.54561901 -1.36072503 18.76306197 3.49221325 28 8 C28 8.66 28 9.32 28 10 C28.825 10.185625 29.65 10.37125 30.5 10.5625 C35.65560697 12.67998144 40.18269495 16.18202697 43.234375 20.9140625 C44.14051089 23.38282048 44.14498518 25.39026673 44 28 C37.3206903 28.5116067 32.381099 27.74958903 26.26171875 25.01171875 C23.8471421 23.87708619 23.8471421 23.87708619 20.5625 22.9375 C17.87139235 21.95294842 16.90036953 21.06561905 15 19 C14.278125 18.608125 13.55625 18.21625 12.8125 17.8125 C7.7045366 14.52070137 3.36530638 10.04795957 0 5 C-0.125 2.3125 -0.125 2.3125 0 0 Z " fill="#09140D" transform="translate(202,18)"/>
<path d="M0 0 C6.44548406 -0.81895562 11.75355182 0.30196777 17.75 2.6875 C18.37527588 2.93129395 19.00055176 3.17508789 19.64477539 3.42626953 C24.19148546 5.33667219 27.35216925 7.77915522 31 11 C31.825 11.495 32.65 11.99 33.5 12.5 C37.80125341 15.08075205 42.43891193 18.00451819 44 23 C44.02479884 24.66648216 44.02740857 26.33355872 44 28 C34.45563919 29.23893145 26.61634654 25.5919261 18 22 C18 21.34 18 20.68 18 20 C17.46375 19.7525 16.9275 19.505 16.375 19.25 C9.72361513 15.74927112 4.20952918 11.33566194 0 5 C-0.2265625 2.21484375 -0.2265625 2.21484375 0 0 Z " fill="#09130D" transform="translate(10,210)"/>
<path d="M0 0 C0.2734375 4.6875 0.2734375 4.6875 -2.1875 7.5 C-3.5796875 8.7375 -3.5796875 8.7375 -5 10 C-6.2065625 11.3303125 -6.2065625 11.3303125 -7.4375 12.6875 C-10.22173072 15.20009845 -12.39898343 16.07880972 -16 17 C-16 17.99 -16 18.98 -16 20 C-19.27970944 21.41477662 -22.54866361 22.82339011 -25.875 24.125 C-27.94711538 24.81891026 -27.94711538 24.81891026 -29 26 C-30.66617115 26.04063832 -32.33388095 26.042721 -34 26 C-34 26.66 -34 27.32 -34 28 C-37.3 28 -40.6 28 -44 28 C-44.27734375 25.265625 -44.27734375 25.265625 -44 22 C-42.06640625 19.734375 -42.06640625 19.734375 -39.5625 17.75 C-36.28907728 15.27381654 -36.28907728 15.27381654 -34 12 C-33.01 11.67 -32.02 11.34 -31 11 C-30.5875 10.566875 -30.175 10.13375 -29.75 9.6875 C-21.97339641 2.18863226 -10.49363978 -0.81945994 0 0 Z " fill="#09140D" transform="translate(54,18)"/>
<path d="M0 0 C2.32597511 0.3813074 4.65912158 0.72460254 7 1 C7 1.66 7 2.32 7 3 C9.31 3.66 11.62 4.32 14 5 C14 5.66 14 6.32 14 7 C14.53625 7.268125 15.0725 7.53625 15.625 7.8125 C16.40875 8.204375 17.1925 8.59625 18 9 C18.886875 9.37125 19.77375 9.7425 20.6875 10.125 C27.70079479 14.0947895 33.92212698 19.44522077 37 27 C36.75 30.4375 36.75 30.4375 36 33 C35.01 33 34.02 33 33 33 C33 33.66 33 34.32 33 35 C21.78329863 35.68363643 11.48560913 32.73216596 1 29 C1.66 28.67 2.32 28.34 3 28 C3 26.35 3 24.7 3 23 C3.99 23.66 4.98 24.32 6 25 C8.17253984 25.73340517 10.36252604 26.41602721 12.5625 27.0625 C18.82561308 28.91280654 18.82561308 28.91280654 21 30 C22.70363822 30.22622081 24.41328701 30.40888473 26.125 30.5625 C27.03507812 30.64628906 27.94515625 30.73007812 28.8828125 30.81640625 C29.58148438 30.87699219 30.28015625 30.93757813 31 31 C29.3661767 23.99790014 27.04296368 19.97764698 21 16 C17.75057506 14.16398891 17.75057506 14.16398891 15 13 C15 12.34 15 11.68 15 11 C14.12859375 10.72285156 13.2571875 10.44570313 12.359375 10.16015625 C9.22067355 9.07620935 6.27278759 7.80592411 3.25 6.4375 C-2.20241334 4.12022433 -7.09758206 3.14364291 -13 3 C-11.63880407 9.0497597 -8.16488278 12.64959906 -4 17 C-3.49339844 17.53238281 -2.98679688 18.06476562 -2.46484375 18.61328125 C-0.84332749 20.22663926 -0.84332749 20.22663926 2 22 C0.68 22 -0.64 22 -2 22 C-2 22.99 -2 23.98 -2 25 C-2.99 25.33 -3.98 25.66 -5 26 C-5.495 25.01 -5.99 24.02 -6.5 23 C-8.81037828 18.90470854 -11.89380094 15.90919355 -15.29296875 12.69921875 C-17.92057916 10.08363401 -17.99634844 9.21179049 -18.0625 5.375 C-18.041875 4.26125 -18.02125 3.1475 -18 2 C-17.01 1.67 -16.02 1.34 -15 1 C-15 0.34 -15 -0.32 -15 -1 C-9.5046573 -2.8317809 -5.21633303 -2.21694154 0 0 Z " fill="#239610" transform="translate(215,15)"/>
<path d="M0 0 C0.3125 2.1875 0.3125 2.1875 0 5 C-3.23577094 8.80678934 -7.12885944 11.85469829 -11 15 C-11.86625 15.721875 -12.7325 16.44375 -13.625 17.1875 C-17.40126365 20.06938542 -19.16189811 21 -24 21 C-24 21.66 -24 22.32 -24 23 C-27.41831915 25.5393228 -29.75776898 26.3636198 -34 26 C-34 26.66 -34 27.32 -34 28 C-37.3 28 -40.6 28 -44 28 C-44.3125 25.3125 -44.3125 25.3125 -44 22 C-42 19.5625 -42 19.5625 -39 17 C-38.38382813 16.41863281 -37.76765625 15.83726562 -37.1328125 15.23828125 C-32.93000181 11.33800751 -29.30954579 9.08217482 -24 7 C-23.3503125 6.28650391 -23.3503125 6.28650391 -22.6875 5.55859375 C-17.15083725 0.44487051 -7.24582815 -0.56830025 0 0 Z " fill="#08110D" transform="translate(246,210)"/>
<path d="M0 0 C3.30718215 1.44051162 5.45297492 3.22298151 7.97070312 5.79125977 C8.73829956 6.56869034 9.505896 7.34612091 10.29675293 8.14710999 C11.11663696 8.98672775 11.936521 9.82634552 12.78125 10.69140625 C14.52722634 12.45779835 16.27332378 14.22407076 18.01953125 15.99023438 C20.76734719 18.78162346 23.51266655 21.57541458 26.25537109 24.37182617 C28.90344945 27.06806435 31.56056898 29.75513322 34.21875 32.44140625 C35.44857605 33.70386925 35.44857605 33.70386925 36.70324707 34.99183655 C37.47084351 35.76611496 38.23843994 36.54039337 39.02929688 37.33813477 C39.70118042 38.02271255 40.37306396 38.70729034 41.06530762 39.41261292 C43.08849211 41.0726065 44.44075549 41.60390203 47 42 C46.82417892 42.69203018 46.64835785 43.38406036 46.46720886 44.09706116 C45.9366588 47.39356192 46.16256215 50.12816042 46.5246582 53.44702148 C52.25836781 112.02097425 52.25836781 112.02097425 37.67250061 130.54103088 C32.83759821 136.29918135 27.55026332 141.50636067 21.9375 146.5 C21.11359457 147.23313982 21.11359457 147.23313982 20.27304459 147.98109055 C13.44638846 154.00025756 6.36908902 159.65476518 -1 165 C-1 164.01 -1 163.02 -1 162 C0.63244629 160.47782898 0.63244629 160.47782898 2.94726562 158.82299805 C29.9736738 139.18964654 29.9736738 139.18964654 44.00439453 110.203125 C46.07100246 93.43141815 44.7292111 75.996276 42.87110901 59.25366211 C42.66529457 57.35825684 42.66529457 57.35825684 42.45532227 55.42456055 C42.32118423 54.32403854 42.1870462 53.22351654 42.04884338 52.08964539 C41.99446019 48.64957278 42.74104693 46.18082662 44 43 C43.42509827 42.75008804 42.85019653 42.50017609 42.25787354 42.24269104 C39.68028662 40.82403578 37.95207049 39.19921045 35.87402344 37.11694336 C34.67323151 35.92076637 34.67323151 35.92076637 33.44818115 34.70042419 C32.59387512 33.83893265 31.73956909 32.9774411 30.859375 32.08984375 C29.53610199 30.76588341 29.53610199 30.76588341 28.18609619 29.41517639 C26.32444583 27.55050648 24.46481138 25.68406914 22.60839844 23.81420898 C20.22370504 21.41246456 17.83241954 19.01741771 15.43880844 16.62456417 C13.15952905 14.34494844 10.88450731 12.06109735 8.609375 9.77734375 C7.31577057 8.48207008 7.31577057 8.48207008 5.99603271 7.16062927 C5.2081134 6.36633011 4.42019409 5.57203094 3.60839844 4.75366211 C2.90986755 4.05131943 2.21133667 3.34897675 1.49163818 2.62535095 C0 1 0 1 0 0 Z M46 37 C46.99 37.495 46.99 37.495 48 38 C48 38.66 48 39.32 48 40 C49.32 40.33 50.64 40.66 52 41 C50.35 41.33 48.7 41.66 47 42 C46.67 40.35 46.34 38.7 46 37 Z " fill="#218B10" transform="translate(42,47)"/>
<path d="M0 0 C2.31 0 4.62 0 7 0 C7 0.66 7 1.32 7 2 C7.57333572 2.24965515 8.14667145 2.4993103 8.73738098 2.75653076 C11.32729955 4.17987426 13.09666872 5.82153598 15.2019043 7.89550781 C16.01922531 8.69684143 16.83654633 9.49817505 17.67863464 10.3237915 C18.98819878 11.62531158 18.98819878 11.62531158 20.32421875 12.953125 C21.22622513 13.84610291 22.12823151 14.73908081 23.05757141 15.65911865 C24.96247605 17.54951776 26.86481724 19.44217919 28.76391602 21.33837891 C31.1933279 23.76240249 33.63848552 26.16984987 36.08790874 28.57362747 C38.42774723 30.87650873 40.74978166 33.197215 43.07421875 35.515625 C43.9533342 36.37520813 44.83244965 37.23479126 45.73820496 38.12042236 C46.95000175 39.34133575 46.95000175 39.34133575 48.1862793 40.58691406 C48.90035446 41.29591858 49.61442963 42.0049231 50.35014343 42.7354126 C52.34965515 45.47993544 52.67877663 47.65547033 53 51 C48.74304642 50.49186241 46.82467178 49.31479611 43.83984375 46.27807617 C43.05552979 45.49023239 42.27121582 44.70238861 41.46313477 43.89067078 C40.62967529 43.03342911 39.79621582 42.17618744 38.9375 41.29296875 C38.06859131 40.41602859 37.19968262 39.53908844 36.30444336 38.63557434 C33.99763358 36.3046684 31.69947327 33.96567412 29.40563965 31.62200928 C26.17876215 28.32885679 22.93695141 25.05041633 19.69555664 21.77156067 C17.97232639 20.02671015 16.25261522 18.27837539 14.53686523 16.52616882 C13.75255127 15.72886856 12.9682373 14.9315683 12.16015625 14.11010742 C11.47574463 13.41141037 10.79133301 12.71271332 10.08618164 11.99284363 C5.82677413 7.92400659 2.9892867 5.55714295 -3 5 C-2.67 4.34 -2.34 3.68 -2 3 C-1.34 3 -0.68 3 0 3 C0 2.01 0 1.02 0 0 Z " fill="#32E112" transform="translate(36,38)"/>
<path d="M0 0 C1.89841141 -0.00642769 1.89841141 -0.00642769 3.83517456 -0.01298523 C6.50305188 -0.01871435 9.1705404 -0.02018013 11.83837891 -0.01489258 C15.24910678 -0.00908197 18.65929441 -0.02608317 22.06993294 -0.04923725 C25.33828453 -0.06753698 28.6066064 -0.06378932 31.875 -0.0625 C33.09591339 -0.07170975 34.31682678 -0.08091949 35.57473755 -0.09040833 C36.71296967 -0.08417953 37.85120178 -0.07795074 39.02392578 -0.0715332 C40.02207306 -0.07216263 41.02022034 -0.07279205 42.0486145 -0.07344055 C45.24911826 0.36112642 47.16802889 1.4802223 49.8046875 3.30078125 C48.8146875 3.63078125 47.8246875 3.96078125 46.8046875 4.30078125 C46.8046875 3.64078125 46.8046875 2.98078125 46.8046875 2.30078125 C38.65942267 2.38518759 30.51437589 2.48007183 22.36939621 2.58830833 C18.58728448 2.63823909 14.80520024 2.68456928 11.02294922 2.72265625 C7.37237703 2.75954996 3.72203665 2.80592075 0.0716629 2.85884476 C-1.32053305 2.87736705 -2.71277865 2.89248303 -4.10504913 2.90412521 C-6.05613457 2.92102393 -8.00709137 2.95119296 -9.95800781 2.98193359 C-11.0683136 2.99525726 -12.17861938 3.00858093 -13.3225708 3.02230835 C-16.13149625 3.29459514 -17.80721819 3.84720389 -20.1953125 5.30078125 C-20.11097291 13.72408007 -20.01611479 22.14716638 -19.90778542 30.57018757 C-19.85781635 34.48124448 -19.8114865 38.39227431 -19.7734375 42.3034668 C-19.73659219 46.0772241 -19.69023457 49.85075508 -19.63724899 53.62431908 C-19.61870097 55.06479108 -19.60359449 56.5053116 -19.59196854 57.94585609 C-19.57511385 59.96180318 -19.54494356 61.97762569 -19.51416016 63.9934082 C-19.50083649 65.14146439 -19.48751282 66.28952057 -19.4737854 67.47236633 C-19.39918417 70.50468791 -19.39918417 70.50468791 -17.1953125 73.30078125 C-19.1328125 72.55078125 -19.1328125 72.55078125 -21.1953125 71.30078125 C-22.37533225 68.04441942 -22.32800716 64.85387029 -22.34057617 61.41821289 C-22.35014595 59.64100609 -22.35014595 59.64100609 -22.35990906 57.82789612 C-22.36102188 56.55179977 -22.3621347 55.27570343 -22.36328125 53.9609375 C-22.36660965 52.64669296 -22.36993805 51.33244843 -22.37336731 49.9783783 C-22.37934775 47.19854918 -22.38120829 44.41875111 -22.38061523 41.63891602 C-22.3805136 38.08362009 -22.39417192 34.5285238 -22.41138744 30.97327518 C-22.42520338 27.57332629 -22.42459668 24.1734141 -22.42578125 20.7734375 C-22.43296677 19.49936539 -22.44015228 18.22529327 -22.44755554 16.91261292 C-22.44447891 15.72465622 -22.44140228 14.53669952 -22.43823242 13.31274414 C-22.44036995 11.74865562 -22.44036995 11.74865562 -22.44255066 10.15296936 C-22.18021531 7.1266171 -21.6079076 4.98644211 -20.1953125 2.30078125 C-13.88500918 -0.61450186 -6.8246286 -0.00511151 0 0 Z " fill="#1A6910" transform="translate(113.1953125,90.69921875)"/>
<path d="M0 0 C-0.48572072 4.56682659 -2.06372119 6.57625241 -5.25683594 9.80615234 C-6.61394684 11.19185928 -6.61394684 11.19185928 -7.99847412 12.6055603 C-8.99311556 13.599679 -9.98843244 14.59312231 -10.984375 15.5859375 C-12.00274103 16.61207981 -13.02065868 17.63866728 -14.03814697 18.66567993 C-16.17003566 20.81247262 -18.30948564 22.95137385 -20.45410156 25.08544922 C-23.20298038 27.82271478 -25.92840506 30.58208925 -28.64818954 33.34822655 C-30.74300465 35.47247907 -32.85148229 37.58274313 -34.96417999 39.68919754 C-35.97519134 40.70123636 -36.98147769 41.71801818 -37.98290253 42.73954391 C-39.38276113 44.16403221 -40.80373746 45.56767504 -42.22558594 46.97021484 C-43.02865173 47.77453949 -43.83171753 48.57886414 -44.65911865 49.40756226 C-47 51 -47 51 -49.79840088 50.75186157 C-50.52492859 50.50374725 -51.2514563 50.25563293 -52 50 C-51.875 48.1875 -51.875 48.1875 -51 46 C-50.08675964 45.54831955 -49.17351929 45.0966391 -48.23260498 44.63127136 C-44.94646653 42.97298537 -42.96904517 41.32162844 -40.40332031 38.7121582 C-39.54933655 37.85149246 -38.69535278 36.99082672 -37.81549072 36.1040802 C-36.91216003 35.17899155 -36.00882935 34.25390289 -35.078125 33.30078125 C-34.1282294 32.34019831 -33.17751186 31.38042754 -32.22601318 30.4214325 C-29.73475403 27.9074866 -27.25180588 25.38551315 -24.77142334 22.86083984 C-20.78913612 18.80809935 -16.79908874 14.76312164 -12.79994965 10.72701073 C-11.40508918 9.31541892 -10.01686609 7.89727846 -8.62872314 6.4790802 C-7.78734802 5.62787094 -6.9459729 4.77666168 -6.07910156 3.8996582 C-5.33774963 3.14481644 -4.59639771 2.38997467 -3.83258057 1.61225891 C-2 0 -2 0 0 0 Z " fill="#35EE13" transform="translate(89,167)"/>
<path d="M0 0 C0.66 0.33 1.32 0.66 2 1 C2.495 2.485 2.495 2.485 3 4 C6.37846191 6.39941663 9.64961963 6.27388466 13.69628906 6.31884766 C14.36011597 6.32889328 15.02394287 6.3389389 15.70788574 6.34928894 C17.89379033 6.38008633 20.07957263 6.3971461 22.265625 6.4140625 C23.78449554 6.43277696 25.30335572 6.45235059 26.82220459 6.4727478 C30.81369919 6.52404579 34.80522749 6.56368388 38.796875 6.60089111 C42.87248047 6.64094546 46.94794604 6.69203126 51.0234375 6.7421875 C59.01552938 6.83891914 67.00769058 6.92333264 75 7 C71.58129821 9.07462209 68.93084736 9.24819381 64.96557617 9.24291992 C63.74718552 9.24599655 62.52879486 9.24907318 61.27348328 9.25224304 C59.95991348 9.24505753 58.64634369 9.23787201 57.29296875 9.23046875 C55.92540022 9.22927552 54.55783086 9.22882409 53.19026184 9.2290802 C50.32462425 9.22751733 47.45911193 9.21924598 44.59350586 9.20581055 C40.93532259 9.18886935 37.27727747 9.18499506 33.61905956 9.18575573 C30.79391684 9.18548257 27.96880382 9.17997726 25.14367104 9.17275429 C23.1435698 9.16805821 21.14346235 9.16629887 19.14335632 9.16459656 C13.33331503 9.13440778 7.71904451 9.06915471 2 8 C2 7.01 2 6.02 2 5 C-3.97253 10.07342645 -9.57218884 15.43845476 -15.09375 20.99609375 C-16.34194519 22.24641136 -16.34194519 22.24641136 -17.61535645 23.52198792 C-20.24594935 26.15813262 -22.87302441 28.79775105 -25.5 31.4375 C-27.29403855 33.23655979 -29.08830715 35.0353902 -30.8828125 36.83398438 C-35.25787125 41.22000812 -39.63005512 45.60888142 -44 50 C-44.66 49.67 -45.32 49.34 -46 49 C-45.43845718 48.44511902 -44.87691437 47.89023804 -44.2983551 47.31854248 C-39.00806445 42.08835926 -33.72503022 36.85100286 -28.4499979 31.60543442 C-25.73778444 28.90887783 -23.02285092 26.21518318 -20.30151367 23.52783203 C-17.67544724 20.93435798 -15.05677418 18.33362703 -12.44306755 15.72769928 C-11.44453752 14.73471296 -10.44337036 13.74437124 -9.43954659 12.75673676 C-8.0342087 11.37316951 -6.63905521 9.97928058 -5.24438477 8.58496094 C-4.04858543 7.39915436 -4.04858543 7.39915436 -2.82862854 6.18939209 C-1.02177334 4.02606892 -0.37742303 2.75509243 0 0 Z " fill="#2BBF11" transform="translate(87,162)"/>
<path d="M0 0 C0.99 0.495 0.99 0.495 2 1 C-3.59226416 6.77771801 -9.20588927 12.53344213 -14.84797764 18.26247501 C-17.46725925 20.92348868 -20.07859342 23.59141432 -22.6730957 26.27661133 C-25.17781731 28.86833062 -27.70165235 31.4399414 -30.239851 33.99886894 C-31.20415578 34.97794304 -32.16139685 35.96402702 -33.111269 36.95710945 C-34.44397784 38.34797384 -35.8046301 39.71189867 -37.16625977 41.07446289 C-37.93237076 41.85833878 -38.69848175 42.64221466 -39.48780823 43.44984436 C-43.00577861 45.62061878 -45.02770553 44.83449758 -49 44 C-51.19107345 43.89278876 -53.38440356 43.82557178 -55.57788086 43.79467773 C-56.83865952 43.77473251 -58.09943817 43.75478729 -59.39842224 43.73423767 C-60.75389487 43.71726002 -62.10936875 43.70038097 -63.46484375 43.68359375 C-64.86732043 43.66299241 -66.26979135 43.64199517 -67.67225647 43.62062073 C-71.34314268 43.56572807 -75.01408184 43.51617577 -78.68505859 43.46777344 C-82.43917489 43.41731707 -86.19321538 43.36175767 -89.94726562 43.30664062 C-97.29811268 43.19946105 -104.64902326 43.09792882 -112 43 C-112 42.34 -112 41.68 -112 41 C-103.67271053 40.97687316 -95.34543437 40.95908317 -87.01812077 40.94818783 C-83.15179882 40.94295974 -79.28549879 40.93586346 -75.41918945 40.92456055 C-71.69096599 40.913729 -67.96276366 40.9077226 -64.23452568 40.90512276 C-62.80910344 40.90326899 -61.38368241 40.89964929 -59.95826912 40.89426994 C-57.96836592 40.88705607 -55.97844166 40.88659192 -53.98852539 40.88647461 C-52.85379288 40.884254 -51.71906036 40.88203339 -50.54994202 40.87974548 C-48 41 -48 41 -47 42 C-43.81637478 42.42261621 -42.43574177 42.31642082 -39.804245 40.40551758 C-39.06922256 39.65939209 -38.33420013 38.9132666 -37.5769043 38.14453125 C-36.73641037 37.30365967 -35.89591644 36.46278809 -35.029953 35.59643555 C-33.69061455 34.21838745 -33.69061455 34.21838745 -32.32421875 32.8125 C-31.3990596 31.88026611 -30.47390045 30.94803223 -29.52070618 29.98754883 C-27.06493428 27.51271452 -24.62454838 25.0232343 -22.18707275 22.53039551 C-19.69568909 19.98780305 -17.19003547 17.45936059 -14.68554688 14.9296875 C-9.77630978 9.96687639 -4.88318301 4.98844563 0 0 Z " fill="#16570F" transform="translate(208,42)"/>
<path d="M0 0 C2.26323167 2.26323167 2.43903427 2.90798203 2.6875 6 C2.60282787 11.81415285 -0.7587452 14.83988476 -4.640625 18.8359375 C-10.27075812 24 -10.27075812 24 -13 24 C-13.33 24.99 -13.66 25.98 -14 27 C-17.03525486 29.02350324 -18.19426202 29.32124018 -21.6875 29.625 C-22.49574219 29.69976562 -23.30398437 29.77453125 -24.13671875 29.8515625 C-25.05904297 29.92503906 -25.05904297 29.92503906 -26 30 C-26 30.66 -26 31.32 -26 32 C-27.98 32 -29.96 32 -32 32 C-31 30 -31 30 -28.875 29.1875 C-25.7423947 27.89359781 -23.39226963 26.22258764 -20.68359375 24.21875 C-19 23 -19 23 -16.5625 21.5625 C-10.57526497 17.91174693 -5.31440118 14.36365027 -2 8 C-1.62633887 6.00714063 -1.28713445 4.00715344 -1 2 C-1.79664063 2.144375 -2.59328125 2.28875 -3.4140625 2.4375 C-4.47367188 2.623125 -5.53328125 2.80875 -6.625 3 C-7.66914063 3.185625 -8.71328125 3.37125 -9.7890625 3.5625 C-12.90574865 3.98715797 -15.85930812 4.07545206 -19 4 C-19 3.34 -19 2.68 -19 2 C-12.78852503 -0.25871817 -6.58088641 -0.6790596 0 0 Z " fill="#218E10" transform="translate(247,207)"/>
<path d="M0 0 C2.51593018 -0.39440918 2.51593018 -0.39440918 5.73144531 -0.41992188 C6.93319397 -0.43583374 8.13494263 -0.45174561 9.37310791 -0.46813965 C11.33084137 -0.46844177 11.33084137 -0.46844177 13.328125 -0.46875 C14.67853106 -0.47585042 16.0289341 -0.48354924 17.3793335 -0.49182129 C20.2140744 -0.50528547 23.04853681 -0.50682784 25.88330078 -0.50097656 C29.50626964 -0.49509759 33.1278904 -0.52558473 36.75059891 -0.56609344 C39.54230882 -0.59202778 42.33369741 -0.59484244 45.12551117 -0.59120178 C47.10745099 -0.59370805 49.08932287 -0.6183822 51.07110596 -0.64343262 C61.11141819 -0.56649536 61.11141819 -0.56649536 64.80371094 2.34960938 C68.0358087 6.24997102 68.12364661 9.03139536 68.11352539 13.94018555 C68.11341209 15.77174446 68.11341209 15.77174446 68.11329651 17.64030457 C68.10813522 18.95912125 68.10297394 20.27793793 68.09765625 21.63671875 C68.0957908 23.00006559 68.0943675 24.36341311 68.09336853 25.72676086 C68.08955332 29.31228491 68.07973155 32.89776835 68.06866455 36.48327637 C68.05842901 40.1431422 68.05386632 43.8030146 68.04882812 47.46289062 C68.03810838 54.64194558 68.02104393 61.8209671 68 69 C67.67 69 67.34 69 67 69 C66.99413376 68.25941849 66.98826752 67.51883698 66.98222351 66.7558136 C66.92425275 59.76700466 66.85215085 52.77846798 66.76428509 45.78997517 C66.71961054 42.19732735 66.68034838 38.60479216 66.65356445 35.01196289 C66.62750177 31.54284303 66.58707944 28.07415725 66.53681374 24.60530663 C66.51207779 22.64178155 66.50210773 20.67808842 66.49235535 18.71443176 C66.47256119 17.5135643 66.45276703 16.31269684 66.43237305 15.07543945 C66.42126999 14.02064896 66.41016693 12.96585846 66.39872742 11.87910461 C65.93864875 8.55699897 65.02347576 6.65996665 63 4 C59.74628455 2.91542818 57.3910068 2.87953143 53.96801758 2.88647461 C52.10642754 2.88658791 52.10642754 2.88658791 50.20722961 2.88670349 C48.85299642 2.89181009 47.49876363 2.89702609 46.14453125 2.90234375 C44.75876415 2.90420917 43.37299639 2.90563249 41.98722839 2.90663147 C38.3425209 2.9104469 34.69785335 2.92026887 31.05316162 2.93133545 C27.33297262 2.9415705 23.61277715 2.94613358 19.89257812 2.95117188 C12.59503389 2.96189202 5.29752254 2.97895675 -2 3 C-1.34 2.01 -0.68 1.02 0 0 Z " fill="#2DC412" transform="translate(98,89)"/>
<path d="M0 0 C0.66 0.33 1.32 0.66 2 1 C3.16968419 4.99888838 3.10352271 8.89593454 3.06591797 13.03759766 C3.06124512 13.72601242 3.05657227 14.41442719 3.05175781 15.123703 C3.04129503 16.6111067 3.02864573 18.0984963 3.01403427 19.58586502 C2.99194939 21.93943776 2.97791202 24.29292932 2.96633911 26.64657593 C2.93279337 33.33578554 2.8909457 40.02485942 2.82861328 46.71386719 C2.79100694 50.81095413 2.76795813 54.9079047 2.75430679 59.0051384 C2.74624645 60.5657063 2.73262895 62.12625568 2.71337509 63.68672562 C2.68695207 65.86505351 2.67900866 68.0427234 2.67529297 70.22119141 C2.66561493 71.46075592 2.65593689 72.70032043 2.64596558 73.97744751 C2.73305111 77.00794222 2.73305111 77.00794222 4.52029419 78.92367554 C5.25274857 79.45645615 5.25274857 79.45645615 6 80 C1.25 78.125 1.25 78.125 -1 77 C-1.33 77.99 -1.66 78.98 -2 80 C-3.32 79.67 -4.64 79.34 -6 79 C-6 78.34 -6 77.68 -6 77 C-4.02 76.505 -4.02 76.505 -2 76 C-1.67 74.68 -1.34 73.36 -1 72 C-0.34 72 0.32 72 1 72 C0.67 48.24 0.34 24.48 0 0 Z " fill="#2BBD11" transform="translate(168,90)"/>
<path d="M0 0 C3.96 0 7.92 0 12 0 C12.33 0.66 12.66 1.32 13 2 C9.04 2 5.08 2 1 2 C2.23793205 8.60230428 5.3690607 12.25560785 10 17 C10.50660156 17.53109375 11.01320312 18.0621875 11.53515625 18.609375 C13.15571918 20.2270033 13.15571918 20.2270033 16 22 C14.68 22 13.36 22 12 22 C12 22.99 12 23.98 12 25 C11.01 25.33 10.02 25.66 9 26 C8.505 25.01 8.01 24.02 7.5 23 C5.68001844 19.72271436 3.53497529 17.55613923 0.75 15.0625 C-2.85256472 11.65340635 -2.85256472 11.65340635 -3.515625 8.71484375 C-3.5 6.5 -3.5 6.5 -3 3 C-2.01 2.67 -1.02 2.34 0 2 C0 1.34 0 0.68 0 0 Z " fill="#259F11" transform="translate(201,15)"/>
<path d="M0 0 C0.33 0.66 0.66 1.32 1 2 C0.01 2.495 0.01 2.495 -1 3 C1.475 3.495 1.475 3.495 4 4 C4 4.33 4 4.66 4 5 C3.05125 5.2475 2.1025 5.495 1.125 5.75 C-1.94809028 6.59647996 -4.67699938 7.78002285 -7.5625 9.125 C-13.9080144 11.77305083 -20.23995417 11.3506652 -27 11 C-27.33 8.03 -27.66 5.06 -28 2 C-27.34 1.67 -26.68 1.34 -26 1 C-26 2.98 -26 4.96 -26 7 C-22.37 7 -18.74 7 -15 7 C-15 6.34 -15 5.68 -15 5 C-10 3.33333333 -5 1.66666667 0 0 Z " fill="#26A611" transform="translate(35,39)"/>
<path d="M0 0 C0.66 0 1.32 0 2 0 C2.06942922 8.30998987 2.12277489 16.6198591 2.15543652 24.93006706 C2.17111039 28.78860575 2.19237955 32.6469464 2.22631836 36.50537109 C2.25885119 40.22713296 2.27684004 43.94870403 2.28463173 47.67059708 C2.29018625 49.0924289 2.30103261 50.51424996 2.31719017 51.93600082 C2.33888117 53.92321387 2.34022469 55.91061783 2.34057617 57.89794922 C2.34723801 59.03046112 2.35389984 60.16297302 2.36076355 61.32980347 C2.24171158 62.21096832 2.12265961 63.09213318 2 64 C0.515 64.99 0.515 64.99 -1 66 C-0.67 44.22 -0.34 22.44 0 0 Z " fill="#12430E" transform="translate(171,96)"/>
<path d="M0 0 C0.99 0 1.98 0 3 0 C3 21.78 3 43.56 3 66 C0 63 0 63 -0.36076355 60.24751282 C-0.35410172 59.13498642 -0.34743988 58.02246002 -0.34057617 56.8762207 C-0.34034958 55.61513992 -0.34012299 54.35405914 -0.33988953 53.05476379 C-0.32456963 51.67843268 -0.30892164 50.30210518 -0.29296875 48.92578125 C-0.2873726 47.51759798 -0.28310259 46.10940886 -0.28010559 44.70121765 C-0.26865818 40.99718056 -0.23919235 37.2934971 -0.20599365 33.58959961 C-0.17529026 29.80913069 -0.16159971 26.02860457 -0.14648438 22.24804688 C-0.11432216 14.83187014 -0.06312755 7.41598464 0 0 Z " fill="#2FCD12" transform="translate(89,96)"/>
<path d="M0 0 C0.66 0.33 1.32 0.66 2 1 C2.495 2.485 2.495 2.485 3 4 C5.00016466 5.20882096 5.00016466 5.20882096 7 6 C7 6.66 7 7.32 7 8 C5.35 8 3.7 8 2 8 C2 7.01 2 6.02 2 5 C-3.97253 10.07342645 -9.57218884 15.43845476 -15.09375 20.99609375 C-16.34194519 22.24641136 -16.34194519 22.24641136 -17.61535645 23.52198792 C-20.24594935 26.15813262 -22.87302441 28.79775105 -25.5 31.4375 C-27.29403855 33.23655979 -29.08830715 35.0353902 -30.8828125 36.83398438 C-35.25787125 41.22000812 -39.63005512 45.60888142 -44 50 C-44.66 49.67 -45.32 49.34 -46 49 C-45.43845718 48.44511902 -44.87691437 47.89023804 -44.2983551 47.31854248 C-39.00806445 42.08835926 -33.72503022 36.85100286 -28.4499979 31.60543442 C-25.73778444 28.90887783 -23.02285092 26.21518318 -20.30151367 23.52783203 C-17.67544724 20.93435798 -15.05677418 18.33362703 -12.44306755 15.72769928 C-11.44453752 14.73471296 -10.44337036 13.74437124 -9.43954659 12.75673676 C-8.0342087 11.37316951 -6.63905521 9.97928058 -5.24438477 8.58496094 C-4.04858543 7.39915436 -4.04858543 7.39915436 -2.82862854 6.18939209 C-1.02177334 4.02606892 -0.37742303 2.75509243 0 0 Z " fill="#31DC12" transform="translate(87,162)"/>
<path d="M0 0 C0.66 0.33 1.32 0.66 2 1 C-0.6557604 3.34603152 -3.32448738 5.67652852 -6 8 C-7.2065625 9.051875 -7.2065625 9.051875 -8.4375 10.125 C-11.48212842 12.3527769 -14.6788238 14.09269021 -18.01171875 15.8515625 C-20.13760315 16.96517924 -20.13760315 16.96517924 -22 19 C-24.125 19.625 -24.125 19.625 -26 20 C-24.35 20.33 -22.7 20.66 -21 21 C-21 20.34 -21 19.68 -21 19 C-19.02 18.67 -17.04 18.34 -15 18 C-15.33 18.66 -15.66 19.32 -16 20 C-17.32 20 -18.64 20 -20 20 C-20 20.66 -20 21.32 -20 22 C-25.15946865 23.7041678 -29.4425333 24.22225605 -34.9375 24.125 C-35.62134766 24.11597656 -36.30519531 24.10695312 -37.00976562 24.09765625 C-38.67333287 24.07438958 -40.33671631 24.03853167 -42 24 C-42 23.67 -42 23.34 -42 23 C-37.71 23 -33.42 23 -29 23 C-29 22.34 -29 21.68 -29 21 C-32.63 21 -36.26 21 -40 21 C-40 20.67 -40 20.34 -40 20 C-36.7 20 -33.4 20 -30 20 C-30 19.34 -30 18.68 -30 18 C-26.68885166 16.87119943 -23.41021743 15.78697325 -20 15 C-20 14.34 -20 13.68 -20 13 C-18.783125 12.5875 -17.56625 12.175 -16.3125 11.75 C-12.58720148 10.34484354 -9.98676513 8.68043024 -7 6 C-5.73078661 4.91476922 -4.45987672 3.83152021 -3.1875 2.75 C-2.12429679 1.83414905 -1.06155004 0.9177666 0 0 Z " fill="#1C750F" transform="translate(242,218)"/>
<path d="M0 0 C0.66 0.33 1.32 0.66 2 1 C-0.7819368 4.27286682 -4.27954067 5.96427697 -8 8 C-6.02 7.67 -4.04 7.34 -2 7 C-4.39509338 9.89932357 -6.31245243 10.50168276 -10 11 C-10.33 11.99 -10.66 12.98 -11 14 C-11.66 13.67 -12.32 13.34 -13 13 C-13 12.01 -13 11.02 -13 10 C-15.71367316 11.94227368 -18.36989735 13.9459701 -21 16 C-21.90685547 16.70189453 -21.90685547 16.70189453 -22.83203125 17.41796875 C-26.19344578 20.33773758 -27.36399232 22.40193278 -27.875 26.875 C-27.94301726 28.2489486 -27.99388614 29.62438242 -28 31 C-27.34 31 -26.68 31 -26 31 C-26.33 31.66 -26.66 32.32 -27 33 C-27.66 32.67 -28.32 32.34 -29 32 C-29.92936298 27.6285519 -30.47344148 23.29590719 -27.95117188 19.36572266 C-23.34479732 13.77873343 -17.71613501 8.55685051 -10.94921875 5.8046875 C-7.75137307 4.48453477 -4.85262115 2.61976274 -1.8828125 0.85546875 C-1.26148437 0.57316406 -0.64015625 0.29085938 0 0 Z " fill="#1B6C0F" transform="translate(34,16)"/>
<path d="M0 0 C2.64770524 2.45157893 3.01517743 4.08954685 3.625 7.6875 C3.43692244 13.25668553 -0.16205907 17.240066 -4 21 C-6.234375 22.2578125 -6.234375 22.2578125 -8 23 C-7.04367001 21.70684939 -6.08486149 20.41553147 -5.125 19.125 C-4.59132812 18.40570313 -4.05765625 17.68640625 -3.5078125 16.9453125 C-2 15 -2 15 0 13 C0.28042984 10.82462316 0.28042984 10.82462316 0.1875 8.4375 C0.18105469 7.63183594 0.17460937 6.82617188 0.16796875 5.99609375 C0.21630912 4.00120115 0.21630912 4.00120115 -1 3 C-6.3632381 2.63624726 -11.83911463 2.39479032 -17 4.0625 C-20.11043894 5.03451217 -21.02213293 4.91774783 -24 4 C-23.32453125 3.80664062 -22.6490625 3.61328125 -21.953125 3.4140625 C-20.61507812 3.02347656 -20.61507812 3.02347656 -19.25 2.625 C-18.36828125 2.36976563 -17.4865625 2.11453125 -16.578125 1.8515625 C-14.0266753 1.08409077 -14.0266753 1.08409077 -11.89453125 -0.08984375 C-8.04241308 -1.94044897 -3.93037703 -1.31012568 0 0 Z " fill="#175C0F" transform="translate(248,205)"/>
<path d="M0 0 C3 2 3 2 3.6875 4.125 C3.790625 4.74375 3.89375 5.3625 4 6 C3.34 6 2.68 6 2 6 C2 5.34 2 4.68 2 4 C1.34 4 0.68 4 0 4 C0 3.34 0 2.68 0 2 C-22.77 2 -45.54 2 -69 2 C-69 1.67 -69 1.34 -69 1 C-68.25719788 0.98969254 -67.51439575 0.97938507 -66.74908447 0.96876526 C-59.74536904 0.8707459 -52.74173731 0.76822517 -45.73816299 0.66066074 C-42.13764699 0.60552067 -38.53712273 0.55211515 -34.93652344 0.50268555 C-31.46108835 0.45491019 -27.98574933 0.40256304 -24.51042938 0.34705925 C-22.54071081 0.31679173 -20.57092152 0.29124654 -18.60113525 0.26576233 C-17.40019226 0.24581711 -16.19924927 0.22587189 -14.96191406 0.20532227 C-13.90490295 0.18977798 -12.84789185 0.1742337 -11.7588501 0.15821838 C-1.52075287 -0.4289303 -1.52075287 -0.4289303 0 0 Z " fill="#18610F" transform="translate(167,170)"/>
<path d="M0 0 C2.32597511 0.3813074 4.65912158 0.72460254 7 1 C7 1.66 7 2.32 7 3 C5.02 3 3.04 3 1 3 C1.99 3.99 2.98 4.98 4 6 C3.05125 5.690625 2.1025 5.38125 1.125 5.0625 C-3.50938425 3.72071729 -8.20552041 3.36657993 -13 3 C-13 2.67 -13 2.34 -13 2 C-7.555 1.505 -7.555 1.505 -2 1 C-5.96 0.67 -9.92 0.34 -14 0 C-14 0.66 -14 1.32 -14 2 C-14.99 2.495 -14.99 2.495 -16 3 C-16.65772428 6.02934491 -16.65772428 6.02934491 -17 9 C-17.33 9 -17.66 9 -18 9 C-18 6.69 -18 4.38 -18 2 C-17.01 1.67 -16.02 1.34 -15 1 C-15 0.34 -15 -0.32 -15 -1 C-9.5046573 -2.8317809 -5.21633303 -2.21694154 0 0 Z " fill="#1F8410" transform="translate(215,15)"/>
<path d="M0 0 C0.99 0.33 1.98 0.66 3 1 C3.25 7.625 3.25 7.625 1 11 C0.34 11 -0.32 11 -1 11 C-1.061875 11.5775 -1.12375 12.155 -1.1875 12.75 C-2.3224773 15.89301406 -4.37371606 16.99902176 -7 19 C-9.26598904 21.58970176 -10.39425123 23.60780689 -11 27 C-11.99 26.01 -12.98 25.02 -14 24 C-12.66495191 20.92873174 -11.33121592 19.22157855 -8.6875 17.1875 C-5.13062731 14.22591981 -2.02002929 11.2220432 0 7 C0.41991981 3.20595397 0.41991981 3.20595397 0 0 Z " fill="#144C0E" transform="translate(58,16)"/>
<path d="M0 0 C2 2 2 2 2.1953125 3.9453125 C2.13020833 5.96354167 2.06510417 7.98177083 2 10 C1.01 9.67 0.02 9.34 -1 9 C-1 7.02 -1 5.04 -1 3 C-7.11485027 2.90293888 -12.93303301 3.22959149 -19 4 C-19 3.34 -19 2.68 -19 2 C-12.78852503 -0.25871817 -6.58088641 -0.6790596 0 0 Z " fill="#239810" transform="translate(247,207)"/>
<path d="M0 0 C0 0.66 0 1.32 0 2 C1.051875 1.87625 1.051875 1.87625 2.125 1.75 C5.92949327 2.0808255 7.98077266 3.75313314 11 6 C9.1875 6.625 9.1875 6.625 7 7 C6.01 6.34 5.02 5.68 4 5 C4 4.34 4 3.68 4 3 C2.948125 3.04125 1.89625 3.0825 0.8125 3.125 C-3 3 -3 3 -5.3125 2 C-9.46276803 0.45571422 -13.61808443 0.84684567 -18 1 C-18 1.66 -18 2.32 -18 3 C-18.66 2.67 -19.32 2.34 -20 2 C-16.42287703 -5.15424595 -5.99640211 -1.9988007 0 0 Z " fill="#0D2B0D" transform="translate(218,13)"/>
<path d="M0 0 C0.66 0 1.32 0 2 0 C2.0270043 1.45823212 2.04639787 2.91660675 2.0625 4.375 C2.07410156 5.18710937 2.08570313 5.99921875 2.09765625 6.8359375 C2 9 2 9 1 11 C-0.60407328 11.02708567 -2.2082785 11.04643483 -3.8125 11.0625 C-5.15248047 11.07990234 -5.15248047 11.07990234 -6.51953125 11.09765625 C-9 11 -9 11 -12 10 C-12 9.34 -12 8.68 -12 8 C-6.555 7.505 -6.555 7.505 -1 7 C-0.67 4.69 -0.34 2.38 0 0 Z " fill="#27AB11" transform="translate(247,39)"/>
<path d="M0 0 C0.33 0.66 0.66 1.32 1 2 C0.01 2.495 0.01 2.495 -1 3 C1.475 3.495 1.475 3.495 4 4 C4 4.33 4 4.66 4 5 C1.69 5.33 -0.62 5.66 -3 6 C-3 5.34 -3 4.68 -3 4 C-3.515625 4.28875 -4.03125 4.5775 -4.5625 4.875 C-11.4640225 8.06031807 -17.48346396 8.24466121 -25 8 C-25 7.67 -25 7.34 -25 7 C-21.7 7 -18.4 7 -15 7 C-15 6.34 -15 5.68 -15 5 C-7.5 2.5 -7.5 2.5 0 0 Z " fill="#1F8210" transform="translate(35,39)"/>
<path d="M0 0 C12.66970387 -0.738041 12.66970387 -0.738041 18 4 C15 4 15 4 12.70703125 3.50390625 C9.64468167 2.93385849 6.80014811 2.90329508 3.6875 2.9375 C2.61886719 2.94652344 1.55023438 2.95554687 0.44921875 2.96484375 C-0.35902344 2.97644531 -1.16726562 2.98804687 -2 3 C-2.268125 3.61875 -2.53625 4.2375 -2.8125 4.875 C-4 7 -4 7 -7 9 C-5.79618552 6.50638429 -4.54571278 4.31856917 -3 2 C-2.01 2 -1.02 2 0 2 C0 1.34 0 0.68 0 0 Z " fill="#208710" transform="translate(121,111)"/>
<path d="M0 0 C0.66 0.33 1.32 0.66 2 1 C-14.26959074 15.37214467 -14.26959074 15.37214467 -25 18 C-24.01 16.515 -24.01 16.515 -23 15 C-22.01 15 -21.02 15 -20 15 C-20 14.34 -20 13.68 -20 13 C-18.783125 12.5875 -17.56625 12.175 -16.3125 11.75 C-12.58720148 10.34484354 -9.98676513 8.68043024 -7 6 C-5.73078661 4.91476922 -4.45987672 3.83152021 -3.1875 2.75 C-2.12429679 1.83414905 -1.06155004 0.9177666 0 0 Z " fill="#144A0E" transform="translate(242,218)"/>
<path d="M0 0 C0.66 0.33 1.32 0.66 2 1 C-0.40016348 5.94151304 -3.52273027 8.04331244 -8 11 C-8.66 10.67 -9.32 10.34 -10 10 C-7.76931028 5.023846 -4.85875384 2.49166864 0 0 Z " fill="#26A410" transform="translate(21,25)"/>
<path d="M0 0 C-6.08293888 3.40644577 -12.12912764 4.5725727 -19 4 C-20.734375 2.48046875 -20.734375 2.48046875 -22 1 C-20.95199219 0.93941406 -19.90398437 0.87882813 -18.82421875 0.81640625 C-17.44529952 0.73198262 -16.06639395 0.64733553 -14.6875 0.5625 C-13.99720703 0.52318359 -13.30691406 0.48386719 -12.59570312 0.44335938 C-0.93173828 -0.28916016 -0.93173828 -0.28916016 0 0 Z " fill="#0D2C0D" transform="translate(222,241)"/>
<path d="M0 0 C5.61 0.66 11.22 1.32 17 2 C17 1.34 17 0.68 17 0 C17.66 0.33 18.32 0.66 19 1 C17.66697708 3.66604583 16.81009519 3.99124788 14 5 C9.3972985 5.44542273 6.42042332 5.61727823 2.5 3.0625 C1.675 2.381875 0.85 1.70125 0 1 C0 0.67 0 0.34 0 0 Z " fill="#12410E" transform="translate(231,48)"/>
<path d="M0 0 C0.43570312 0.37511719 0.87140625 0.75023437 1.3203125 1.13671875 C2.5670329 2.20803476 3.81586829 3.27689267 5.06640625 4.34375 C6.24823582 5.35606462 7.42426235 6.37526891 8.58984375 7.40625 C11.84358259 10.2370891 15.07492891 12.2243726 19 14 C19 14.66 19 15.32 19 16 C19.66 16.33 20.32 16.66 21 17 C18.61435923 16.42415568 16.33317216 15.77772405 14 15 C14 14.34 14 13.68 14 13 C13.27425781 12.7628125 12.54851563 12.525625 11.80078125 12.28125 C8.56516091 10.8010778 6.66991715 9.03593526 4.1875 6.5 C3.39730469 5.7059375 2.60710938 4.911875 1.79296875 4.09375 C0 2 0 2 0 0 Z " fill="#113F0E" transform="translate(8,220)"/>
<path d="M0 0 C0.66 0 1.32 0 2 0 C3.82729049 1.93530766 5.46895378 3.99047623 7.1484375 6.0546875 C9.00597948 8.00628224 10.53471309 8.968272 13 10 C13 10.66 13 11.32 13 12 C13.5775 12.2475 14.155 12.495 14.75 12.75 C17.3002997 14.16683317 19.01785701 15.87627537 21 18 C17.63670142 17.42012094 16.3276513 16.42075735 14 14 C12.9171875 13.4121875 12.9171875 13.4121875 11.8125 12.8125 C6.98509861 9.70150799 1.84627203 5.5388161 0 0 Z " fill="#144D0E" transform="translate(203,23)"/>
<path d="M0 0 C0.33 0 0.66 0 1 0 C1.33 1.98 1.66 3.96 2 6 C5.63 6.33 9.26 6.66 13 7 C13 7.66 13 8.32 13 9 C8.71 9 4.42 9 0 9 C-1.36623674 6.26752652 -1.128426 4.01801098 -1 1 C-0.67 0.67 -0.34 0.34 0 0 Z " fill="#249A10" transform="translate(200,232)"/>
<path d="M0 0 C1.21236328 0.01353516 1.21236328 0.01353516 2.44921875 0.02734375 C3.37154297 0.04474609 3.37154297 0.04474609 4.3125 0.0625 C4.3125 0.3925 4.3125 0.7225 4.3125 1.0625 C3.19230469 1.26746094 2.07210937 1.47242188 0.91796875 1.68359375 C-0.55470824 1.95561689 -2.02736336 2.22775849 -3.5 2.5 C-4.23798828 2.63470703 -4.97597656 2.76941406 -5.73632812 2.90820312 C-8.80065076 3.47669737 -11.72678953 4.07559651 -14.6875 5.0625 C-14.6875 4.0725 -14.6875 3.0825 -14.6875 2.0625 C-15.43 2.413125 -16.1725 2.76375 -16.9375 3.125 C-19.8197726 4.10759293 -20.89926345 4.0951802 -23.6875 3.0625 C-20.24364223 0.94639463 -17.62125314 0.87620034 -13.625 1 C-8.8590669 1.13549624 -4.71673524 -0.06835848 0 0 Z " fill="#1B720F" transform="translate(241.6875,208.9375)"/>
<path d="M0 0 C-2.45561045 2.80641195 -4.27382327 3.93578671 -8.00390625 4.265625 C-11.01123516 4.25142274 -13.99779002 4.17237569 -17 4 C-17 3.34 -17 2.68 -17 2 C-18.32 1.67 -19.64 1.34 -21 1 C-18.18185434 -0.40907283 -16.82722796 0.49127309 -13.875 1.4375 C-12.50988281 1.86869141 -12.50988281 1.86869141 -11.1171875 2.30859375 C-10.41851562 2.53675781 -9.71984375 2.76492187 -9 3 C-9 2.34 -9 1.68 -9 1 C-2.25 -1.125 -2.25 -1.125 0 0 Z " fill="#2CC112" transform="translate(139,140)"/>
<path d="M0 0 C2.65280582 2.19924459 3.88195387 3.40814111 4.56640625 6.83984375 C4.55603169 15.06686723 4.55603169 15.06686723 2.87109375 17.89453125 C1.5 19.25 1.5 19.25 -1 21 C-0.34 18.03 0.32 15.06 1 12 C1.66 12 2.32 12 3 12 C3 10.35 3 8.7 3 7 C2.34 7 1.68 7 1 7 C0.67 4.69 0.34 2.38 0 0 Z " fill="#2BBF12" transform="translate(140,118)"/>
<path d="M0 0 C0.99 0 1.98 0 3 0 C3.103125 0.763125 3.20625 1.52625 3.3125 2.3125 C4.04364039 5.17059424 4.76951913 6.15742885 7 8 C2.25 6.125 2.25 6.125 0 5 C-0.33 5.99 -0.66 6.98 -1 8 C-2.32 7.67 -3.64 7.34 -5 7 C-5 6.34 -5 5.68 -5 5 C-3.68 4.67 -2.36 4.34 -1 4 C-0.67 2.68 -0.34 1.36 0 0 Z " fill="#2ABB11" transform="translate(167,162)"/>
<path d="M0 0 C1.70363822 0.22622081 3.41328701 0.40888473 5.125 0.5625 C6.03507812 0.64628906 6.94515625 0.73007812 7.8828125 0.81640625 C8.58148438 0.87699219 9.28015625 0.93757813 10 1 C10 1.33 10 1.66 10 2 C9.34773438 2.06058594 8.69546875 2.12117188 8.0234375 2.18359375 C3.31283783 2.63519991 -1.34201638 3.14195039 -6 4 C-5.01 3.67 -4.02 3.34 -3 3 C-3 2.34 -3 1.68 -3 1 C-5.31 1.66 -7.62 2.32 -10 3 C-8 0 -8 0 -5 -0.75 C-2 -1 -2 -1 0 0 Z " fill="#239410" transform="translate(44,16)"/>
<path d="M0 0 C0.66 0.33 1.32 0.66 2 1 C1.505 1.4125 1.01 1.825 0.5 2.25 C-1.43386092 4.12202338 -1.43386092 4.12202338 -1 8 C-1.99 8.66 -2.98 9.32 -4 10 C-4.99 9.67 -5.98 9.34 -7 9 C-6.34 9 -5.68 9 -5 9 C-5 8.01 -5 7.02 -5 6 C-5.66 5.67 -6.32 5.34 -7 5 C-6.030625 4.360625 -5.06125 3.72125 -4.0625 3.0625 C-1.23963731 1.3034741 -1.23963731 1.3034741 0 0 Z " fill="#1D790F" transform="translate(234,226)"/>
<path d="M0 0 C-0.886875 0.53625 -1.77375 1.0725 -2.6875 1.625 C-5.1565906 3.24771203 -6.91449068 4.93780617 -8.75 7.25 C-9.4925 8.1575 -10.235 9.065 -11 10 C-11.66 10 -12.32 10 -13 10 C-11.62960621 6.00301811 -9.9571229 3.04161213 -7 0 C-4.06123095 -0.97958968 -2.79175344 -1.39587672 0 0 Z " fill="#32E212" transform="translate(126,114)"/>
<path d="M0 0 C0.66 0.33 1.32 0.66 2 1 C1.51430343 5.27560164 0.44040072 6.98538769 -2.875 9.6875 C-3.57367188 10.26886719 -4.27234375 10.85023438 -4.9921875 11.44921875 C-6.61167414 12.70006738 -8.29737231 13.86491488 -10 15 C-8.19526171 10.94614063 -5.54211524 8.13397514 -2.55859375 4.90234375 C-0.7955971 2.98116107 -0.7955971 2.98116107 0 0 Z " fill="#12410E" transform="translate(209,214)"/>
<path d="M0 0 C1.65 0 3.3 0 5 0 C5 1.32 5 2.64 5 4 C6.98 3.67 8.96 3.34 11 3 C10.67 4.32 10.34 5.64 10 7 C7.8125 7.3125 7.8125 7.3125 5 7 C2.1875 4.625 2.1875 4.625 0 2 C0 1.34 0 0.68 0 0 Z " fill="#249C10" transform="translate(33,213)"/>
<path d="M0 0 C3.3 0.99 6.6 1.98 10 3 C10 3.33 10 3.66 10 4 C8.35 4.33 6.7 4.66 5 5 C5.66 5.66 6.32 6.32 7 7 C1.25 6.25 1.25 6.25 -1 4 C-0.01 4 0.98 4 2 4 C1.34 2.68 0.68 1.36 0 0 Z " fill="#208910" transform="translate(224,41)"/>
<path d="M0 0 C0.99 0.33 1.98 0.66 3 1 C3.25 7.625 3.25 7.625 1 11 C0.34 11 -0.32 11 -1 11 C-1.33 12.32 -1.66 13.64 -2 15 C-2.33 14.34 -2.66 13.68 -3 13 C-2.525625 12.113125 -2.05125 11.22625 -1.5625 10.3125 C0.19569142 6.58513419 0.24414779 4.06912977 0 0 Z " fill="#0F310D" transform="translate(58,16)"/>
<path d="M0 0 C0 0.99 0 1.98 0 3 C-3.465 4.485 -3.465 4.485 -7 6 C-7 5.01 -7 4.02 -7 3 C-8.32 2.67 -9.64 2.34 -11 2 C-7.63355753 0.31677876 -3.7441959 0 0 0 Z " fill="#218E10" transform="translate(227,211)"/>
<path d="M0 0 C6.51791392 -0.3540919 11.17521449 -0.03901852 17 3 C13.83454798 4.58272601 11.25581122 3.33086619 7.875 2.5625 C5.95300781 2.13130859 5.95300781 2.13130859 3.9921875 1.69140625 C2.51105469 1.34916016 2.51105469 1.34916016 1 1 C0.67 2.32 0.34 3.64 0 5 C0 3.35 0 1.7 0 0 Z " fill="#10370E" transform="translate(10,210)"/>
<path d="M0 0 C0.66 0.33 1.32 0.66 2 1 C2.33 1.99 2.66 2.98 3 4 C5.00016466 5.20882096 5.00016466 5.20882096 7 6 C7 6.66 7 7.32 7 8 C5.35 8 3.7 8 2 8 C2 7.01 2 6.02 2 5 C0.68 5.33 -0.64 5.66 -2 6 C-1.34 4.02 -0.68 2.04 0 0 Z " fill="#2AB711" transform="translate(87,162)"/>
<path d="M0 0 C0.99 0.495 0.99 0.495 2 1 C2 1.66 2 2.32 2 3 C3.32 3.33 4.64 3.66 6 4 C4.35 4.33 2.7 4.66 1 5 C0.67 3.35 0.34 1.7 0 0 Z M-2 5 C-1.01 5 -0.02 5 1 5 C0.67 6.65 0.34 8.3 0 10 C-0.66 10 -1.32 10 -2 10 C-2 8.35 -2 6.7 -2 5 Z " fill="#28B011" transform="translate(88,84)"/>
<path d="M0 0 C3.3 0.99 6.6 1.98 10 3 C10 3.33 10 3.66 10 4 C9.2575 4.144375 8.515 4.28875 7.75 4.4375 C5.07188726 4.93631867 5.07188726 4.93631867 2.8125 5.6875 C2.214375 5.790625 1.61625 5.89375 1 6 C0.34 5.34 -0.32 4.68 -1 4 C-0.01 4 0.98 4 2 4 C1.34 2.68 0.68 1.36 0 0 Z " fill="#1D7A0F" transform="translate(32,233)"/>
<path d="M0 0 C2.97 0.33 5.94 0.66 9 1 C9 1.99 9 2.98 9 4 C6.75 4.25 6.75 4.25 4 4 C1.6875 2 1.6875 2 0 0 Z " fill="#27A911" transform="translate(215,17)"/>
<path d="M0 0 C6.2049038 0.2757735 10.10160999 1.10640794 15 5 C13.1875 5.625 13.1875 5.625 11 6 C10.01 5.34 9.02 4.68 8 4 C8 3.34 8 2.68 8 2 C5.69 2 3.38 2 1 2 C0.67 1.34 0.34 0.68 0 0 Z " fill="#113D0E" transform="translate(214,14)"/>
<path d="M0 0 C0.66 0.33 1.32 0.66 2 1 C2 1.66 2 2.32 2 3 C3.95927063 4.7143618 5.95880212 6.38405168 8 8 C7.01 8 6.02 8 5 8 C4.34 7.34 3.68 6.68 3 6 C1.01178687 5.60235737 -0.98944339 5.26224651 -3 5 C-2.67 4.34 -2.34 3.68 -2 3 C-1.34 3 -0.68 3 0 3 C0 2.01 0 1.02 0 0 Z " fill="#29B111" transform="translate(36,38)"/>
<path d="M0 0 C4.35535069 1.16142685 6.64619703 2.07699505 9 6 C5.59687262 4.94124926 2.98646769 3.99097846 0 2 C0 1.34 0 0.68 0 0 Z " fill="#144B0E" transform="translate(229,20)"/>
<path d="M0 0 C2.31 0.33 4.62 0.66 7 1 C7 1.66 7 2.32 7 3 C8.65 3 10.3 3 12 3 C12 3.33 12 3.66 12 4 C7.01137151 4.29344873 4.03770942 4.05887078 0 1 C0 0.67 0 0.34 0 0 Z " fill="#113C0E" transform="translate(28,208)"/>
<path d="M0 0 C1.65 0 3.3 0 5 0 C6.125 3.75 6.125 3.75 5 6 C4.34 5.67 3.68 5.34 3 5 C3.33 4.01 3.66 3.02 4 2 C2.68 2.33 1.36 2.66 0 3 C0 2.01 0 1.02 0 0 Z " fill="#31DA12" transform="translate(213,37)"/>
</svg>
